<?xml version="1.0" encoding="utf-8"?>
<!-- Generator: Adobe Illustrator 15.1.0, SVG Export Plug-In . SVG Version: 6.00 Build 0)  -->
<!DOCTYPE svg PUBLIC "-//W3C//DTD SVG 1.1//EN" "http://www.w3.org/Graphics/SVG/1.1/DTD/svg11.dtd">
<svg version="1.1" id="Layer_1" xmlns="http://www.w3.org/2000/svg" xmlns:xlink="http://www.w3.org/1999/xlink" x="0px" y="0px"
	 width="80.497px" height="10.338px" viewBox="0 0 80.497 10.338" enable-background="new 0 0 80.497 10.338" xml:space="preserve">
<g>
	<g>
		<path d="M19.251,8.3c-0.42,0.492-0.936,0.875-1.547,1.127c-0.54,0.228-1.104,0.348-1.691,0.348c-0.959,0-1.799-0.288-2.53-0.863
			c-0.972-0.78-1.571-2.099-1.571-3.479c0-0.863,0.216-1.667,0.636-2.411c0.659-1.187,2.11-2.207,3.742-2.207
			c0.731,0,1.415,0.204,2.11,0.611c1.283,0.768,1.943,2.015,1.943,3.694C20.343,6.381,19.971,7.449,19.251,8.3z M18.088,2.052
			c-0.42-0.528-1.115-0.864-1.859-0.864c-0.479,0-0.959,0.144-1.427,0.492c-0.876,0.648-1.355,1.991-1.355,3.694
			c0,1.151,0.276,2.47,0.792,3.178c0.396,0.551,1.055,0.852,1.822,0.852c0.564,0,1.056-0.156,1.451-0.456
			c0.792-0.576,1.344-2.207,1.344-4.066C18.856,3.611,18.604,2.688,18.088,2.052z"/>
		<path d="M27.113,5.206c-0.372,0.12-0.84,0.216-1.392,0.216c-0.42,0-1.008-0.024-1.728-0.072l0.036,2.867
			c0,0.36,0.12,0.563,0.24,0.708c0.228,0.264,0.768,0.336,1.127,0.384c0.024,0.048,0.024,0.072,0.024,0.144
			c0,0.06,0,0.096-0.036,0.144h-0.3c-0.443,0-1.031-0.048-2.099-0.048c-0.432,0-1.344,0.048-1.728,0.048
			c-0.023-0.06-0.036-0.024-0.036-0.12c0-0.108,0.013-0.12,0.024-0.18c0.252-0.024,0.516-0.084,0.695-0.12
			c0.396-0.12,0.636-0.492,0.684-0.852c0.036-0.288,0.048-1.739,0.048-4.27c0-0.912-0.023-1.535-0.06-1.955
			c-0.072-0.348-0.12-0.504-0.324-0.684c-0.239-0.06-0.611-0.12-0.839-0.192c-0.036-0.06-0.036-0.12-0.036-0.168
			s0.023-0.084,0.06-0.144c0.372,0,0.899,0.048,1.344,0.048c0.636,0,1.331-0.072,2.255-0.072c1.055,0,1.738,0.108,2.135,0.276
			c0.768,0.336,1.283,1.14,1.283,2.027C28.492,4.09,27.964,4.894,27.113,5.206z M26.812,1.979c-0.3-0.516-0.935-0.755-1.906-0.755
			c-0.42,0-0.72,0.048-0.899,0.06l-0.013,3.634c0,0.06,0.072,0.072,0.181,0.084c0.096,0.012,0.384,0.024,0.684,0.024
			c0.72,0,1.235-0.12,1.535-0.335c0.479-0.348,0.731-0.924,0.731-1.547C27.125,2.711,27.004,2.304,26.812,1.979z"/>
		<path d="M37.597,1.188c-0.239,0.06-0.611,0.132-0.779,0.24c-0.24,0.144-0.6,0.492-0.768,0.804L34.215,5.89
			c-0.048,0.096-0.084,0.204-0.084,0.324c0,0.012-0.012,0.156,0,0.3l0.108,1.799c0.023,0.468,0.119,0.564,0.312,0.768
			c0.12,0.12,0.659,0.192,1.043,0.24c0.036,0.06,0.049,0.096,0.049,0.156s-0.036,0.108-0.061,0.156
			c-0.216,0-0.527-0.012-0.936-0.024c-0.707-0.012-1.188-0.024-1.439-0.024c-0.359,0-1.091,0.012-1.702,0.012
			c-0.013-0.048-0.036-0.084-0.036-0.144s0.012-0.084,0.06-0.168c0.276-0.024,0.876-0.108,0.96-0.156
			c0.203-0.132,0.384-0.408,0.384-0.924c0-0.611-0.024-1.103-0.108-1.439c-0.06-0.216-0.18-0.516-0.384-0.899l-2.099-4.114
			c-0.084-0.156-0.324-0.3-1.128-0.492c-0.035-0.06-0.048-0.096-0.048-0.144c0-0.084,0.024-0.096,0.072-0.18
			c0.096,0,0.899,0.036,1.487,0.036c1.379,0,1.247-0.036,2.051-0.036h0.216c0.036,0.06,0.072,0.036,0.072,0.12
			c0,0.048-0.013,0.12-0.036,0.18c-0.504,0.06-0.876,0.083-0.983,0.3c-0.024,0.048-0.048,0.156-0.048,0.312
			c0,0.108,0.023,0.276,0.048,0.324l0.671,1.463c0.168,0.36,0.804,1.655,1.116,2.183c0.191-0.264,0.479-0.875,1.031-1.991
			c0.323-0.66,0.552-1.127,0.659-1.427c0.061-0.156,0.072-0.3,0.072-0.444c0-0.192-0.024-0.312-0.108-0.468
			c-0.096-0.168-0.6-0.251-0.947-0.324c-0.012-0.036-0.023-0.084-0.023-0.144c0-0.06,0.012-0.072,0.048-0.144
			c0.323,0,1.067,0.048,1.679,0.048c0.252,0,0.899-0.036,1.392-0.036c0.023,0.048,0.072,0.072,0.072,0.144
			C37.646,1.08,37.622,1.128,37.597,1.188z"/>
		<path d="M46.477,9.596c-0.3,0-1.067,0-1.343,0c-0.456,0-0.695-0.024-0.792-0.036c-0.228-0.024-0.323-0.24-0.359-0.492
			c-0.12-0.875-0.372-2.027-0.756-2.626c-0.288-0.444-0.695-0.768-1.151-0.972c-0.312-0.144-0.636-0.168-0.959-0.168
			c-0.097,0-0.216,0-0.312,0.012l0.013,3.01c0,0.42,0.216,0.708,0.516,0.852c0.132,0.024,0.432,0.096,0.672,0.12
			c0.023,0.048,0.048,0.096,0.048,0.18c0,0.048-0.024,0.084-0.048,0.132c-0.685,0-0.972-0.036-1.739-0.036
			c-0.384,0-1.859,0.036-2.027,0.036C38.214,9.547,38.19,9.5,38.19,9.463c0-0.06,0.024-0.108,0.06-0.167
			c0.24-0.012,0.528-0.06,0.685-0.084c0.348-0.144,0.455-0.504,0.491-0.804c0.06-0.456,0.048-1.991,0.048-3.214
			c0-1.691-0.012-2.771-0.071-3.154c-0.12-0.264-0.217-0.432-0.504-0.647c-0.192-0.036-0.564-0.084-0.768-0.108
			c-0.013-0.048-0.024-0.12-0.024-0.168s0.024-0.072,0.061-0.156c0.071,0,0.527,0.024,0.707,0.024c0.42,0,1.104,0.024,1.283,0.024
			c0.6,0,1.331-0.084,2.231-0.084c0.635,0,1.151,0.048,1.438,0.132c0.876,0.276,1.499,1.199,1.499,2.171
			c0,0.647-0.264,1.188-0.743,1.547c-0.228,0.18-0.432,0.324-1.319,0.432c-0.228,0.024-0.312,0.036-0.491,0.072
			c0.144,0.06,0.3,0.12,0.491,0.192c0.42,0.144,0.731,0.3,0.84,0.396c0.287,0.264,0.636,0.839,0.888,1.439
			c0.18,0.456,0.348,0.948,0.503,1.499c0.049,0.084,0.145,0.228,0.204,0.3c0.18,0.132,0.672,0.156,0.792,0.156
			c0.036,0.048,0.06,0.12,0.06,0.18S46.526,9.547,46.477,9.596z M43.527,1.968c-0.407-0.588-0.923-0.696-2.051-0.696
			c-0.3,0-0.563,0.036-0.611,0.072c-0.048,0.036-0.084,0.12-0.084,0.276v2.267l0.012,1.043c0.18,0.024,0.36,0.024,0.504,0.024
			c0.54,0,0.959-0.036,1.247-0.096c0.708-0.156,1.319-1.007,1.319-1.775C43.863,2.663,43.755,2.292,43.527,1.968z"/>
		<path d="M51.099,9.583h-0.396c-0.396,0-1.283-0.036-1.463-0.036c-0.624,0-1.463,0.06-1.943,0.06h-0.203
			c0-0.06-0.024-0.06-0.024-0.156c0-0.048,0.012-0.132,0.036-0.18c0.875-0.06,1.02-0.276,1.163-0.396
			c0.084-0.156,0.145-0.432,0.168-0.72c0.012-0.42,0.036-1.319,0.036-1.667c0-0.696-0.012-1.511-0.024-2.111
			c-0.012-1.104-0.023-1.715-0.035-1.943c-0.049-0.648-0.252-0.912-0.396-1.02c-0.084-0.06-0.348-0.12-0.936-0.168
			c-0.012-0.06-0.023-0.108-0.023-0.156c0-0.108,0.023-0.108,0.06-0.156h0.264c0.528,0.012,1.344,0.048,1.596,0.048
			c0.407,0,1.223-0.06,1.727-0.06h0.348c0.024,0.024,0.061,0.072,0.061,0.144c0,0.048-0.013,0.108-0.036,0.156
			c-0.384,0.048-0.84,0.096-1.067,0.312c-0.084,0.072-0.216,0.324-0.216,0.647V5.23c0,1.115,0.012,2.422,0.023,2.998
			c0.084,0.432,0.216,0.696,0.408,0.924C50.44,9.2,50.932,9.248,51.112,9.26c0.023,0.048,0.036,0.108,0.036,0.168
			C51.148,9.476,51.135,9.523,51.099,9.583z"/>
		<path d="M61.25,5.866c-0.145,0.012-0.636,0.072-0.78,0.12c-0.191,0.072-0.228,0.132-0.252,0.384
			c-0.023,0.276-0.048,0.756-0.048,1.427c0,0.468,0.096,0.78,0.348,1.14C60.482,9.08,60.446,9.14,60.349,9.14
			c-0.096,0-0.491-0.252-0.779-0.252c-0.216,0-0.42,0.036-0.636,0.108c-0.563,0.204-1.295,0.744-2.578,0.744
			c-0.768,0-1.487-0.144-2.159-0.527c-1.067-0.6-2.087-2.003-2.087-3.838c0-1.332,0.396-2.423,1.224-3.274
			c0.791-0.815,1.703-1.235,3.034-1.235c1.02,0,1.679,0.312,2.375,0.815c0.12-0.216,0.216-0.396,0.371-0.54
			c0.072-0.012,0.12-0.024,0.265-0.012C59.474,1.14,59.546,1.2,59.63,1.26c-0.061,0.372-0.133,0.863-0.133,1.199
			s0.168,0.731,0.288,1.031c0,0.084-0.144,0.18-0.3,0.18c-0.096-0.072-0.204-0.216-0.348-0.48c-0.3-0.528-0.672-0.996-1.104-1.379
			C57.615,1.428,57.076,1.2,56.463,1.2c-1.139,0-2.183,0.792-2.59,2.291c-0.145,0.528-0.216,1.104-0.216,1.727
			c0,0.792,0.107,1.643,0.407,2.315c0.24,0.516,0.684,1.02,1.188,1.415c0.24,0.204,0.54,0.384,0.624,0.408
			c0.06,0.012,0.335,0.048,0.563,0.048c0.455,0,0.936-0.108,1.379-0.312c0.384-0.18,0.684-0.492,0.899-0.959
			c0.12-0.252,0.18-0.516,0.18-0.792c0-0.504-0.023-0.804-0.06-0.924c-0.084-0.264-0.264-0.396-0.54-0.467
			c-0.155-0.036-0.731-0.06-0.839-0.084c-0.036-0.072-0.048-0.12-0.048-0.18c0-0.072,0.023-0.108,0.06-0.168h0.396
			c0.312,0,0.804,0.036,1.308,0.036c0.552,0,1.031-0.036,1.774-0.036h0.324c0.024,0.048,0.061,0.096,0.061,0.168
			C61.333,5.758,61.297,5.793,61.25,5.866z"/>
		<path d="M71.077,9.583h-0.384c-0.54,0-1.031-0.024-1.823-0.024c-0.527,0-1.391,0.012-1.703,0.012
			c-0.023-0.06-0.036-0.108-0.036-0.167c0-0.06,0.013-0.096,0.049-0.156c0.228-0.012,0.707-0.024,0.899-0.144
			c0.216-0.132,0.323-0.456,0.323-1.007V6.273c0-0.396-0.023-0.792-0.023-0.948c-0.168,0-0.624-0.012-0.924-0.012h-2.075
			c-0.335,0-0.755,0.012-0.863,0.012v2.867c0.072,0.492,0.216,0.852,0.492,1.007c0.18,0.048,0.468,0.084,0.839,0.108
			c0.024,0.048,0.048,0.108,0.048,0.18c0,0.048-0.023,0.108-0.071,0.12h-0.336c-0.552,0-1.211-0.048-1.991-0.048
			c-0.6,0-0.959,0.024-1.415,0.024h-0.288c-0.023-0.036-0.036-0.096-0.036-0.132c0-0.036,0.013-0.096,0.049-0.156
			c0.791-0.096,1.115-0.252,1.235-0.636c0.06-0.18,0.096-0.48,0.107-0.888l0.048-1.667c0.012-0.408,0.012-0.792,0.012-1.127
			c0-1.343-0.084-2.626-0.096-2.866c-0.107-0.432-0.252-0.588-0.491-0.78c-0.156-0.036-0.552-0.072-0.756-0.084
			C61.854,1.2,61.841,1.14,61.841,1.104c0-0.06,0.024-0.132,0.049-0.156h0.275c0.516,0,1.079,0.024,1.703,0.024
			c0.275,0,0.983-0.012,1.463-0.012c0.132,0,0.396,0.012,0.492,0.012c0.023,0.036,0.048,0.024,0.048,0.108
			c0,0.072-0.012,0.132-0.048,0.18c-0.684,0.024-1.164,0.144-1.296,0.827c-0.035,0.216-0.06,0.66-0.06,1.392
			c0,0.611,0.036,1.079,0.048,1.391c0.36,0.012,1.823,0.048,2.111,0.048c0.72,0,1.415-0.024,1.763-0.048
			c0.024-0.3,0.048-0.947,0.048-1.127c0-0.875-0.036-1.451-0.096-1.775c-0.108-0.504-0.372-0.648-1.163-0.696
			c-0.024-0.036-0.036-0.108-0.036-0.168c0-0.084,0.036-0.096,0.071-0.132c0.78,0.012,1.26,0.024,1.859,0.024
			c0.312,0,0.947-0.024,1.367-0.024h0.576c0.023,0.036,0.048,0.084,0.048,0.132c0,0.06-0.013,0.132-0.048,0.168
			c-0.852,0.024-1.26,0.408-1.26,1.188l-0.012,4.845c0,0.468,0.036,0.923,0.048,1.164c0.06,0.24,0.3,0.624,0.563,0.719
			c0.144,0.036,0.396,0.084,0.72,0.084c0.024,0.06,0.048,0.096,0.048,0.132C71.125,9.463,71.113,9.536,71.077,9.583z"/>
		<path d="M80.365,3.551c-0.071,0-0.107,0-0.18-0.024c-0.216-0.564-0.432-1.031-0.636-1.307c-0.323-0.432-0.684-0.708-1.427-0.912
			c-0.36-0.012-1.104,0-1.271,0c0,2.075-0.012,2.926-0.012,4.042c0,0.864,0.012,1.476,0.023,2.771c0,0.42,0.072,0.768,0.108,0.9
			c0.336,0.251,1.104,0.228,1.235,0.228c0.035,0.06,0.048,0.096,0.048,0.168c0,0.06,0,0.12-0.036,0.18h-0.336
			c-0.731,0-1.487-0.036-1.835-0.036c-0.432,0-1.115,0.048-1.56,0.048h-0.467c-0.013-0.048-0.013-0.096-0.013-0.144
			c0-0.096,0-0.12,0.036-0.204c1.439-0.06,1.379-0.312,1.428-0.648c0.023-0.192,0.035-1.103,0.035-2.866c0-2.039,0-2.507-0.012-3.37
			c-0.012-0.504-0.023-0.923-0.036-1.056c-0.191,0-1.307,0.012-1.667,0.048c-0.636,0.324-1.14,0.911-1.679,2.003
			c-0.048,0.024-0.096,0.024-0.145,0.024c-0.06,0-0.096-0.012-0.144-0.048v-2.17c0-0.168,0.048-0.204,0.204-0.204h0.888
			c0.671,0,1.787,0.024,3.273,0.024c1.919,0,3.694-0.048,4.054-0.048c0.181,0,0.252,0.048,0.252,0.228v2.327
			C80.473,3.527,80.413,3.551,80.365,3.551z"/>
	</g>
	<g>
		<path d="M5.193,10.338C2.339,10.338,0,8.012,0,5.157C0,2.327,2.339,0,5.193,0c2.831,0,5.169,2.327,5.169,5.157
			C10.362,8.012,8.024,10.338,5.193,10.338z M5.193,0.42c-2.638,0-4.737,2.123-4.737,4.737c0,2.65,2.099,4.773,4.737,4.773
			c2.627,0,4.714-2.123,4.714-4.773C9.907,2.542,7.82,0.42,5.193,0.42z M7.256,7.208C6.908,7.7,6.224,8.06,5.277,8.06
			c-0.743,0-1.379-0.216-1.799-0.528C2.794,7.016,2.375,6.212,2.375,5.217c0-0.936,0.3-1.679,0.828-2.195
			c0.492-0.48,1.127-0.78,1.943-0.78c0.875,0,1.271,0.252,1.703,0.552C6.944,2.674,6.992,2.566,7.1,2.482
			c0.107,0.012,0.275,0.06,0.324,0.096c0,0.156-0.061,0.54-0.061,0.768c0,0.192,0.072,0.779,0.072,0.875
			C7.412,4.258,7.292,4.306,7.244,4.306c-0.071,0-0.144-0.024-0.191-0.036c-0.12-0.408-0.264-0.755-0.396-0.936
			c-0.3-0.396-0.708-0.671-1.2-0.671c-0.588,0-1.151,0.479-1.403,1.163C3.874,4.33,3.838,4.593,3.838,5.157
			c0,0.587,0.12,1.139,0.228,1.379C4.27,7.016,4.809,7.544,5.601,7.544c0.563,0,1.079-0.264,1.523-0.899
			c0.012,0,0.048-0.012,0.071-0.012c0.18,0,0.252,0.144,0.276,0.204C7.412,6.968,7.4,7.028,7.256,7.208z"/>
	</g>
</g>
</svg>
