<?xml version="1.0" encoding="utf-8"?>
<!-- Generator: Adobe Illustrator 15.1.0, SVG Export Plug-In . SVG Version: 6.00 Build 0)  -->
<!DOCTYPE svg PUBLIC "-//W3C//DTD SVG 1.1//EN" "http://www.w3.org/Graphics/SVG/1.1/DTD/svg11.dtd">
<svg version="1.1" id="Layer_1" xmlns="http://www.w3.org/2000/svg" xmlns:xlink="http://www.w3.org/1999/xlink" x="0px" y="0px"
	 width="215.998px" height="14.544px" viewBox="0 0 215.998 14.544" enable-background="new 0 0 215.998 14.544"
	 xml:space="preserve">
<path fill="#FFFFFF" d="M113.669,2.477c0-0.052-0.013-0.144-0.039-0.184h-0.303c-0.658,0-1.078,0.025-2.262,0.025
	c-0.408,0-1.013-0.025-1.158-0.025h-0.341c-0.04,0.025-0.054,0.171-0.054,0.224c0,0.066,0.014,0.171,0.066,0.225
	c0.21,0.064,1.013,0.156,1.354,0.381c0.235,0.276,0.342,0.829,0.381,1.342c0.013,0.198,0.026,0.395,0.026,0.935v2.75
	c0,0.316-0.014,0.422-0.026,0.566c-0.223-0.25-0.538-0.724-1.064-1.316l-4.394-4.868c-0.039-0.054-0.118-0.118-0.197-0.172
	c-0.106,0-0.29-0.013-0.396-0.013c-0.842,0-2.368-0.04-2.592-0.04c-0.026,0.053-0.053,0.132-0.053,0.186
	c0,0.025,0.026,0.21,0.04,0.25c0.197,0.052,0.632,0.117,0.986,0.5c0.211,0.235,0.579,0.564,0.698,0.829
	c0.039,0.092,0.052,0.235,0.052,0.421c0,0.684-0.039,1.645-0.039,2.565v2.671c0,0.435-0.039,0.776-0.079,1
	c-0.275,0.29-0.697,0.5-1.382,0.671c-0.026,0.066-0.052,0.172-0.052,0.237c0,0.039,0.013,0.171,0.039,0.185h0.25
	c0.263,0,0.869-0.039,1.263-0.039c0.579,0,0.974,0.039,1.514,0.039h0.789c0.054-0.014,0.065-0.172,0.065-0.224
	c0-0.053-0.012-0.158-0.038-0.211c-0.462-0.118-1.132-0.224-1.579-0.815c-0.094-0.197-0.172-1.172-0.172-1.633
	c0-0.421-0.014-1-0.014-1.775c0-1.04,0.014-1.948,0.027-2.408c0.079,0.092,0.171,0.21,0.236,0.289l6.078,6.83
	c0.066,0.065,0.303,0.079,0.367,0.079c0.066,0,0.106,0,0.158-0.027c0.027-0.065,0.119-0.276,0.119-0.592
	c0-0.381-0.013-0.776-0.013-0.974V4.872c0-1.646,0.776-2.105,1.685-2.146C113.657,2.662,113.669,2.543,113.669,2.477 M98.592,6.662
	c0,1.986-0.551,3.736-1.301,4.355c-0.383,0.315-0.856,0.474-1.396,0.474c-0.737,0-1.382-0.289-1.75-0.882
	c-0.5-0.764-0.777-2.185-0.777-3.422c0-1.829,0.474-3.263,1.316-3.961c0.448-0.368,0.907-0.513,1.368-0.513
	c0.711,0,1.396,0.342,1.789,0.908C98.342,4.306,98.592,5.293,98.592,6.662 M100.975,6.912c0-1.842-0.816-3.25-2.342-4.092
	c-0.816-0.448-1.633-0.673-2.5-0.673c-1.922,0-3.658,1.146-4.436,2.448c-0.5,0.816-0.763,1.711-0.763,2.658
	c0,1.513,0.737,3,1.882,3.855c0.868,0.632,1.855,0.947,3,0.947c0.697,0,1.355-0.132,2-0.382c0.725-0.276,1.342-0.71,1.829-1.25
	C100.5,9.491,100.975,8.294,100.975,6.912 M89.408,5.254V2.568c0-0.196-0.078-0.25-0.277-0.25c-0.395,0-2.474,0.054-4.578,0.054
	c-1.633,0-2.987-0.026-3.725-0.026h-0.974c-0.171,0-0.224,0.039-0.224,0.223v2.515c0.053,0.039,0.145,0.052,0.211,0.052
	c0.053,0,0.236,0,0.289-0.026c0.593-1.196,1.145-1.842,1.843-2.196c0.394-0.04,1.171-0.054,1.381-0.054
	c0.014,0.146,0.026,0.605,0.04,1.158c0.013,0.947,0.013,1.355,0.013,3.592c0,1.936-0.013,2.804-0.039,3.015
	c-0.053,0.368,0.013,0.645-1.565,0.71c-0.041,0.092-0.041,0.198-0.041,0.303c0,0.053,0,0.158,0.014,0.211h0.514
	c0.486,0,1.631-0.053,2.105-0.053c0.382,0,1.605,0.039,2.408,0.039h0.369c0.039-0.065,0.039-0.21,0.039-0.276
	c0-0.079-0.014-0.171-0.054-0.236c-0.144,0-0.987,0.025-1.354-0.25c-0.039-0.146-0.118-0.526-0.118-0.987
	c-0.015-1.421-0.027-1.96-0.027-2.908c0-1.224,0.013-2.053,0.013-4.329c0.186,0,0.606-0.013,1,0c0.816,0.225,1.211,0.526,1.566,1
	c0.225,0.303,0.461,0.816,0.698,1.435c0.079,0.026,0.146,0.026,0.224,0.026C89.211,5.307,89.381,5.28,89.408,5.254 M78.065,9.531
	c0-0.186,0-0.265-0.015-0.383c-0.064-0.04-0.092-0.04-0.196-0.04c-0.093,0-0.197,0-0.29,0.027c-0.447,1.013-1.092,1.803-1.447,2.013
	c-0.197,0.119-0.5,0.146-0.986,0.146h-1.08c-0.42,0-0.75-0.04-0.867-0.066c-0.198-0.039-0.408-0.354-0.501-0.565
	c-0.093-0.224-0.144-0.224-0.144-0.829V6.951h0.486c0.131,0,0.447,0.026,0.803,0.185c0.328,0.145,0.461,0.342,0.592,0.552
	c0.119,0.186,0.197,0.908,0.224,1.094c0.065,0.039,0.237,0.052,0.342,0.052c0.106,0,0.171-0.013,0.265-0.066
	c0-0.354-0.08-1.315-0.08-1.842c0-0.658,0.092-1.566,0.131-2.04c-0.051-0.026-0.131-0.052-0.262-0.052c-0.093,0-0.264,0-0.343,0.039
	c-0.04,0.185-0.185,0.736-0.211,0.776c-0.196,0.329-0.539,0.579-0.896,0.685c-0.235,0.065-0.578,0.104-0.762,0.104h-0.277V5.214
	c0-1.263,0.027-1.671,0.039-1.908c0.015-0.158,0.041-0.329,0.054-0.447c0.118-0.013,0.185-0.025,0.79-0.025
	c0.763,0,1.117,0.013,1.236,0.013c0.369,0.026,0.645,0.105,0.842,0.263c0.5,0.383,0.882,0.987,1.264,1.633
	c0.079,0.025,0.21,0.025,0.275,0.025c0.08,0,0.093-0.025,0.199-0.079c0-0.803-0.054-1.842-0.08-2.171
	c-0.013-0.132-0.039-0.171-0.303-0.171c-0.105,0-0.605-0.027-1.132-0.027c-0.75,0-1.052,0.015-2.196,0.015
	c-0.619,0-1.896,0.013-2.436,0.013c-0.789,0-1.46-0.027-1.803-0.027h-0.447c-0.039,0.054-0.066,0.158-0.066,0.212
	c0,0.065,0.027,0.211,0.066,0.263c0.158,0.053,0.777,0.04,0.961,0.145c0.184,0.158,0.355,0.225,0.475,0.855
	c0.025,0.277,0.039,1.04,0.039,1.645v2.711c0,0.554-0.014,1.355-0.027,1.685c-0.026,0.513-0.211,1.132-0.289,1.25
	c-0.118,0.092-0.658,0.171-1.184,0.198c-0.041,0.078-0.066,0.21-0.066,0.289c0,0.078,0.025,0.171,0.066,0.236h0.434
	c0.421,0,1.974-0.039,2.328-0.039c0.33,0,0.961,0.026,1.725,0.026c0.421,0,1.658,0.079,4.316,0.079c0.105,0,0.224,0.013,0.355-0.026
	c0.039-0.065,0.039-0.093,0.053-0.211C78.065,11.373,78.065,10.596,78.065,9.531 M66.933,9.991
	c-0.039-0.118-0.146-0.316-0.447-0.316c-0.026,0-0.065,0.013-0.092,0.013c-0.79,1.119-1.658,1.54-2.646,1.54
	c-1.369,0-2.343-0.921-2.658-1.736c-0.17-0.435-0.407-1.383-0.407-2.396c0-0.96,0.144-1.737,0.394-2.303c0.58-1.526,1.422-2,2.448-2
	c0.854,0,1.565,0.487,2.104,1.185c0.225,0.303,0.461,0.895,0.672,1.593c0.053,0.013,0.172,0.038,0.289,0.038
	c0.08,0,0.264-0.065,0.316-0.117c-0.013-0.146-0.145-1.158-0.145-1.475c0-0.395,0.104-1.04,0.104-1.29
	c-0.079-0.079-0.342-0.131-0.513-0.144c-0.197,0.144-0.264,0.314-0.447,0.539c-0.736-0.526-1.421-0.935-2.921-0.935
	c-1.382,0-2.474,0.475-3.303,1.304c-0.908,0.894-1.408,2.131-1.408,3.71c0,1.685,0.71,3.065,1.854,3.935
	c0.725,0.526,1.791,0.882,3.066,0.882c1.605,0,2.777-0.605,3.369-1.408C66.801,10.294,66.828,10.215,66.933,9.991 M56.695,2.477
	c0-0.052-0.014-0.144-0.04-0.184h-0.303c-0.658,0-1.079,0.025-2.263,0.025c-0.408,0-1.014-0.025-1.158-0.025H52.59
	c-0.039,0.025-0.053,0.171-0.053,0.224c0,0.066,0.014,0.171,0.065,0.225c0.211,0.064,1.013,0.156,1.354,0.381
	c0.237,0.276,0.344,0.829,0.383,1.342c0.013,0.198,0.025,0.395,0.025,0.935v2.75c0,0.316-0.013,0.422-0.025,0.566
	c-0.225-0.25-0.539-0.724-1.066-1.316L48.879,2.53c-0.039-0.054-0.119-0.118-0.197-0.172c-0.105,0-0.29-0.013-0.395-0.013
	c-0.843,0-2.369-0.04-2.593-0.04c-0.026,0.053-0.053,0.132-0.053,0.186c0,0.025,0.026,0.21,0.04,0.25
	c0.197,0.052,0.631,0.117,0.986,0.5c0.211,0.235,0.578,0.564,0.697,0.829c0.039,0.092,0.053,0.235,0.053,0.421
	c0,0.684-0.039,1.645-0.039,2.565v2.671c0,0.435-0.039,0.776-0.08,1c-0.275,0.29-0.696,0.5-1.381,0.671
	c-0.026,0.066-0.053,0.172-0.053,0.237c0,0.039,0.014,0.171,0.039,0.185h0.25c0.264,0,0.869-0.039,1.264-0.039
	c0.58,0,0.974,0.039,1.514,0.039h0.789c0.053-0.014,0.066-0.172,0.066-0.224c0-0.053-0.014-0.158-0.039-0.211
	c-0.461-0.118-1.133-0.224-1.58-0.815c-0.093-0.197-0.17-1.172-0.17-1.633c0-0.421-0.015-1-0.015-1.775
	c0-1.04,0.015-1.948,0.026-2.408c0.08,0.092,0.172,0.21,0.238,0.289l6.078,6.83c0.066,0.065,0.303,0.079,0.368,0.079
	s0.106,0,0.158-0.027c0.026-0.065,0.118-0.276,0.118-0.592c0-0.381-0.012-0.776-0.012-0.974V4.872c0-1.646,0.775-2.105,1.684-2.146
	C56.682,2.662,56.695,2.543,56.695,2.477 M43.68,11.597c0-0.065-0.012-0.211-0.038-0.264c-0.197-0.013-0.737-0.065-0.974-0.118
	c-0.211-0.25-0.355-0.54-0.447-1.013c-0.014-0.632-0.027-1.936-0.027-3.158V3.806c0-0.354,0.145-0.631,0.236-0.71
	c0.25-0.237,0.75-0.29,1.172-0.342c0.027-0.053,0.04-0.198,0.04-0.25c0-0.079-0.04-0.186-0.066-0.211h-0.381
	c-0.553,0-1.843,0.065-2.29,0.065c-0.275,0-1.566-0.04-2.145-0.053h-0.291c-0.039,0.053-0.064,0.106-0.064,0.225
	c0,0.053,0.014,0.184,0.025,0.25c0.646,0.053,0.935,0.117,1.027,0.184c0.157,0.119,0.381,0.408,0.435,1.119
	c0.013,0.25,0.026,0.789,0.038,2c0.014,0.658,0.027,1.579,0.027,2.342c0,0.382-0.027,1.237-0.039,1.698
	c-0.026,0.315-0.093,0.618-0.185,0.789c-0.158,0.132-0.315,0.369-1.276,0.434c-0.027,0.053-0.039,0.225-0.039,0.277
	c0,0.104,0.025,0.158,0.025,0.224h0.225c0.525,0,1.842-0.065,2.525-0.065c0.198,0,1.566,0.039,2.001,0.039h0.435
	C43.668,11.754,43.68,11.648,43.68,11.597 M33.127,4.728c0,0.815-0.553,1.75-1.197,1.908c-0.264,0.065-0.592,0.105-1.079,0.105
	c-0.132,0-0.329,0-0.486-0.026l-0.014-1.119V3.175c0-0.158,0.04-0.25,0.079-0.29c0.039-0.039,0.277-0.079,0.553-0.079
	c1.025,0,1.475,0.092,1.842,0.711C33.035,3.872,33.127,4.28,33.127,4.728 M36.943,11.609c0-0.065-0.025-0.224-0.066-0.276
	c-0.131,0-0.67-0.026-0.867-0.171c-0.066-0.079-0.172-0.237-0.225-0.329c-0.171-0.605-0.367-1.013-0.566-1.513
	c-0.275-0.658-0.657-1.276-0.973-1.566c-0.119-0.105-0.527-0.276-0.986-0.434c-0.211-0.079-0.383-0.146-0.541-0.212
	C32.916,7.07,33.01,7.057,33.26,7.03c0.973-0.118,1.197-0.289,1.447-0.487c0.525-0.395,0.815-1,0.815-1.71
	c0-1.066-0.685-2.092-1.646-2.396c-0.315-0.092-0.881-0.145-1.578-0.145c-0.987,0-2.369,0.092-3.027,0.092
	c-0.197,0-1.342-0.026-1.803-0.026c-0.197,0-0.697-0.025-0.776-0.025c-0.039,0.092-0.065,0.197-0.065,0.25
	c0,0.052,0.014,0.184,0.026,0.237c0.224,0.025,0.631,0.077,0.843,0.117c0.315,0.237,0.42,0.421,0.553,0.711
	c0.064,0.422,0.078,1.5,0.078,3.355c0,1.342,0.014,2.895-0.053,3.395c-0.04,0.329-0.158,0.725-0.54,0.883
	c-0.171,0.025-0.485,0.078-0.75,0.092c-0.038,0.065-0.065,0.197-0.065,0.263c0,0.039,0.027,0.146,0.053,0.211
	c0.184,0,2.197-0.04,2.619-0.04c0.842,0,1.553,0.04,2.303,0.04c0.025-0.053,0.053-0.145,0.053-0.198
	c0-0.092-0.027-0.224-0.053-0.275c-0.264-0.027-0.593-0.105-0.736-0.132c-0.33-0.158-0.566-0.474-0.566-0.935l-0.014-3.04
	c0.105-0.013,0.237-0.013,0.342-0.013c0.172,0,0.369,0.026,0.697,0.211c0.487,0.276,0.725,0.473,1.041,0.96
	c0.42,0.658,0.696,1.869,0.828,2.829c0.039,0.277,0.145,0.514,0.395,0.54c0.105,0.013,0.803,0.039,1.303,0.039h1.882
	C36.918,11.781,36.943,11.675,36.943,11.609 M22.653,4.793c0,0.671-0.237,1.264-0.672,1.645c-0.276,0.225-0.71,0.356-1.368,0.356
	c-0.275,0-0.486-0.014-0.566-0.027c-0.104-0.013-0.17-0.025-0.17-0.092l0.012-3.854c0.158-0.015,0.383-0.066,0.764-0.066
	c0.895,0,1.448,0.223,1.711,0.776C22.547,3.885,22.653,4.333,22.653,4.793 M25.008,4.846c0-0.987-0.565-1.908-1.407-2.29
	c-0.435-0.184-1.197-0.302-2.354-0.302c-1.015,0-2.594,0.079-3.291,0.079c-0.486,0-1.224-0.053-1.632-0.053
	c-0.039,0.065-0.065,0.157-0.065,0.211c0,0.052,0,0.196,0.039,0.263c0.25,0.079,0.658,0.144,0.922,0.21
	c0.224,0.198,0.275,0.369,0.354,0.75c0.04,0.461,0.065,1.04,0.065,2.04c0,2.776-0.012,4.237-0.053,4.553
	c-0.052,0.396-0.314,0.803-0.75,0.935c-0.197,0.04-0.486,0.104-0.763,0.132c-0.013,0.065-0.026,0.158-0.026,0.275
	c0,0.105,0.014,0.119,0.039,0.185c0.422,0,1.658-0.052,2.133-0.052c1.17,0,2.369,0.052,2.854,0.052h0.329
	c0.04-0.052,0.04-0.145,0.04-0.21c0-0.079,0-0.185-0.026-0.237c-0.395-0.053-0.986-0.132-1.236-0.421
	c-0.133-0.158-0.264-0.382-0.264-0.776l-0.039-2.895c0.789,0.052,1.631,0.079,2.092,0.079c0.605,0,1.119-0.106,1.527-0.237
	C24.43,6.78,25.008,5.858,25.008,4.846"/>
<path fill="#FFFFFF" d="M215.998,2.372c0-0.079-0.053-0.105-0.079-0.158c-0.54,0-1.25,0.04-1.526,0.04
	c-0.671,0-1.487-0.053-1.843-0.053c-0.038,0.079-0.052,0.092-0.052,0.158c0,0.065,0.014,0.117,0.026,0.157
	c0.381,0.079,0.934,0.171,1.039,0.355c0.093,0.171,0.119,0.303,0.119,0.513c0,0.158-0.014,0.316-0.079,0.487
	c-0.118,0.329-0.369,0.842-0.725,1.565c-0.604,1.225-0.986,1.987-1.196,2.29c-0.343-0.578-1.106-2.105-1.29-2.5l-0.737-1.605
	c-0.026-0.052-0.052-0.237-0.052-0.355c0-0.171,0.025-0.29,0.052-0.342c0.119-0.237,0.527-0.263,1.079-0.329
	c0.027-0.065,0.04-0.145,0.04-0.198c0-0.092-0.04-0.064-0.079-0.131h-0.237c-0.882,0-0.619,0.039-2.132,0.039
	c-0.645,0-1.421-0.039-1.526-0.039c-0.053,0.093-0.078,0.105-0.078,0.197c0,0.053,0.013,0.092,0.052,0.158
	c0.882,0.211,1.145,0.369,1.236,0.54l2.304,4.513c0.224,0.421,0.354,0.75,0.421,0.987c0.092,0.368,0.105,0.908,0.105,1.579
	c0,0.565-0.197,0.869-0.422,1.013c-0.092,0.053-0.75,0.146-1.052,0.171c-0.053,0.092-0.066,0.119-0.066,0.186
	c0,0.064,0.026,0.104,0.039,0.157c0.673,0,1.369-0.014,1.765-0.014c0.275,0,0.696,0.014,1.474,0.027
	c0.447,0.013,0.789,0.025,1.026,0.025c0.025-0.053,0.065-0.104,0.065-0.171c0-0.065-0.013-0.104-0.053-0.171
	c-0.421-0.053-1.013-0.132-1.145-0.263c-0.21-0.225-0.316-0.329-0.343-0.842l-0.104-1.975c-0.013-0.145,0.039-0.276,0.052-0.315
	c0.04-0.146,0.093-0.264,0.146-0.369l2.026-4.014c0.185-0.342,0.579-0.724,0.842-0.882c0.185-0.118,0.593-0.196,0.855-0.263
	C215.972,2.477,215.998,2.425,215.998,2.372 M205.366,5.083V2.53c0-0.197-0.079-0.25-0.277-0.25c-0.395,0-2.21,0.053-4.315,0.053
	c-1.632,0-2.725-0.027-3.461-0.027h-0.974c-0.172,0-0.224,0.04-0.224,0.225v2.382c0.052,0.039,0.092,0.052,0.158,0.052
	c0.052,0,0.104,0,0.158-0.026c0.513-1.145,0.775-1.75,1.657-2.196c0.395-0.04,1.776-0.054,1.987-0.054
	c0.013,0.146,0.026,0.605,0.039,1.158c0.013,0.947,0.013,1.46,0.013,3.697c0,1.935-0.013,2.935-0.039,3.145
	c-0.053,0.369,0.014,0.646-1.565,0.712c-0.04,0.092-0.04,0.117-0.04,0.224c0,0.052,0,0.104,0.014,0.158h0.513
	c0.487,0,1.132-0.054,1.605-0.054c0.382,0,1.106,0.04,1.908,0.04h0.369c0.039-0.065,0.039-0.132,0.039-0.197
	c0-0.079-0.014-0.118-0.053-0.185c-0.145,0-0.986,0.026-1.355-0.25c-0.039-0.145-0.118-0.525-0.118-0.986
	c-0.013-1.422-0.027-2.093-0.027-3.04c0-1.225,0.015-2.158,0.015-4.435c0.184,0,1.157-0.013,1.552,0
	c0.815,0.223,1.132,0.526,1.487,1c0.315,0.421,0.395,0.802,0.592,1.435c0.079,0.025,0.119,0.025,0.198,0.025
	C205.273,5.135,205.338,5.109,205.366,5.083 M194.431,11.583c0-0.066-0.015-0.131-0.04-0.184c-0.197-0.014-0.737-0.066-0.975-0.118
	c-0.21-0.25-0.354-0.54-0.446-1.015c-0.014-0.631-0.026-2.065-0.026-3.289V3.635c0-0.354,0.144-0.631,0.237-0.71
	c0.25-0.237,0.75-0.29,1.171-0.342c0.025-0.053,0.039-0.119,0.039-0.171c0-0.079-0.039-0.132-0.066-0.158h-0.381
	c-0.553,0-1.342,0.065-1.79,0.065c-0.276,0-1.066-0.039-1.646-0.053h-0.288c-0.04,0.053-0.066,0.053-0.066,0.171
	c0,0.053,0.013,0.105,0.026,0.172c0.645,0.053,0.935,0.117,1.026,0.184c0.158,0.119,0.381,0.408,0.435,1.119
	c0.013,0.25,0.025,0.921,0.039,2.131c0.014,0.658,0.026,1.553,0.026,2.316c0,0.382-0.026,1.368-0.04,1.828
	c-0.025,0.316-0.092,0.619-0.184,0.79c-0.158,0.133-0.316,0.368-1.276,0.435c-0.026,0.053-0.04,0.145-0.04,0.198
	c0,0.104,0.026,0.104,0.026,0.171h0.224c0.526,0,1.342-0.066,2.027-0.066c0.197,0,1.065,0.039,1.5,0.039h0.434
	C194.417,11.688,194.431,11.636,194.431,11.583 M187.93,9.162c0-1.053-0.474-1.776-1.487-2.316c-0.276-0.158-0.763-0.329-1.46-0.525
	c-0.803-0.225-1.475-0.487-1.908-0.725c-0.29-0.158-0.777-0.592-0.777-1.434c0-0.843,0.856-1.54,1.856-1.54
	c0.789,0,1.421,0.395,1.802,0.921c0.329,0.461,0.448,0.671,0.816,1.5c0.04,0.013,0.092,0.027,0.132,0.027
	c0.118,0,0.224-0.066,0.289-0.133c-0.039-0.328-0.105-0.788-0.105-1.184c0-0.342,0.079-0.79,0.118-1.027
	c-0.104-0.157-0.223-0.184-0.394-0.184c-0.185,0.119-0.356,0.303-0.514,0.474c-0.868-0.697-1.58-0.815-2.236-0.815
	c-1.619,0-2.777,1.079-2.777,2.513c0,0.487,0.171,0.961,0.487,1.448c0.289,0.408,0.71,0.724,1.275,0.96
	c0.383,0.158,2.094,0.672,2.329,0.764c1.054,0.408,1.448,0.764,1.448,1.697c0,0.461-0.197,0.869-0.579,1.329
	c-0.342,0.421-0.882,0.619-1.461,0.619c-0.618,0-1.684-0.265-2.21-0.975c-0.316-0.407-0.764-1.263-0.895-1.776
	c-0.093-0.026-0.093-0.026-0.185-0.026c-0.079,0-0.172,0.026-0.251,0.079c0,0.171,0.053,1.04,0.053,1.303
	c0,0.646-0.117,0.96-0.145,1.171c0.04,0.132,0.264,0.264,0.421,0.264c0.277-0.237,0.566-0.421,0.658-0.421
	c0.079,0,0.198,0.039,0.315,0.117c0.856,0.554,1.566,0.658,2.198,0.658C186.601,11.925,187.93,10.991,187.93,9.162 M176.285,4.622
	c0,0.842-0.671,1.79-1.448,1.961c-0.315,0.066-0.775,0.104-1.368,0.104c-0.157,0-0.605,0-0.803-0.025l-0.013-1.158V3.017
	c0-0.171,0.039-0.263,0.092-0.303c0.053-0.039,0.592-0.079,0.921-0.079c1.237,0,1.803,0.119,2.25,0.763
	C176.166,3.754,176.285,4.162,176.285,4.622 M179.047,11.596c0-0.064-0.025-0.144-0.065-0.196c-0.131,0-0.671-0.026-0.868-0.172
	c-0.066-0.078-0.171-0.236-0.224-0.328c-0.172-0.605-0.355-1.146-0.554-1.646c-0.275-0.658-0.657-1.276-0.973-1.566
	c-0.119-0.104-0.487-0.275-0.948-0.434c-0.21-0.079-0.381-0.145-0.539-0.211c0.197-0.039,0.289-0.052,0.539-0.078
	c0.855-0.105,1.146-0.29,1.396-0.487c0.525-0.395,0.868-0.986,0.868-1.697c0-1.066-0.685-2.079-1.645-2.383
	c-0.316-0.092-0.882-0.144-1.579-0.144c-0.987,0-1.724,0.092-2.382,0.092c-0.198,0-0.842-0.026-1.303-0.026
	c-0.197,0-0.697-0.026-0.776-0.026c-0.04,0.092-0.065,0.119-0.065,0.171c0,0.053,0.013,0.132,0.025,0.184
	c0.225,0.027,0.632,0.079,0.842,0.119c0.316,0.237,0.421,0.421,0.554,0.71c0.065,0.421,0.079,1.606,0.079,3.461
	c0,1.343,0.013,3.027-0.054,3.527c-0.039,0.329-0.158,0.724-0.539,0.881c-0.171,0.027-0.486,0.079-0.75,0.093
	c-0.04,0.065-0.065,0.118-0.065,0.185c0,0.039,0.025,0.092,0.053,0.158c0.184,0,1.697-0.04,2.118-0.04
	c0.842,0,1.053,0.04,1.803,0.04c0.026-0.054,0.053-0.093,0.053-0.146c0-0.092-0.026-0.145-0.053-0.197
	c-0.263-0.026-0.592-0.105-0.737-0.132c-0.328-0.157-0.565-0.474-0.565-0.934l-0.013-3.29c0.104-0.013,0.486-0.013,0.592-0.013
	c0.355,0,0.711,0.025,1.053,0.184c0.5,0.224,0.974,0.579,1.29,1.066c0.421,0.657,0.697,1.907,0.829,2.868
	c0.039,0.276,0.144,0.514,0.394,0.539c0.106,0.014,0.264,0.04,0.765,0.04h1.367C179.022,11.715,179.047,11.662,179.047,11.596
	 M168.007,9.596c0-0.184,0-0.263-0.013-0.381c-0.065-0.04-0.093-0.04-0.198-0.04c-0.092,0-0.079,0-0.171,0.027
	c-0.289,0.96-0.789,1.671-1.354,2.013c-0.198,0.118-0.554,0.146-1.119,0.146h-1.474c-0.461-0.015-0.75-0.04-0.868-0.066
	c-0.197-0.04-0.408-0.355-0.5-0.566c-0.093-0.224-0.146-0.303-0.146-0.907v-3h0.421c0.421,0,0.764,0.025,1.119,0.184
	c0.329,0.146,0.579,0.355,0.71,0.566c0.119,0.184,0.158,0.907,0.186,1.092c0.064,0.039,0.104,0.053,0.21,0.053
	c0.104,0,0.119-0.014,0.211-0.065c0-0.355-0.079-1.316-0.079-1.843c0-0.657,0.092-1.461,0.131-1.935
	c-0.052-0.026-0.079-0.052-0.21-0.052c-0.092,0-0.132,0-0.211,0.039c-0.039,0.184-0.146,0.736-0.171,0.775
	c-0.197,0.329-0.658,0.593-1.014,0.698c-0.236,0.066-0.578,0.104-1.078,0.104h-0.211V5.149c0-1.265,0.026-1.777,0.039-2.015
	c0.014-0.158,0.039-0.329,0.053-0.447c0.119-0.013,0.5-0.025,1.105-0.025c0.764,0,1.329,0.013,1.447,0.013
	c0.369,0.026,0.645,0.105,0.842,0.263c0.646,0.5,0.816,0.829,1.172,1.633c0.079,0.025,0.093,0.025,0.157,0.025
	c0.079,0,0.093-0.025,0.198-0.079c0-0.803-0.053-1.711-0.079-2.04c-0.013-0.131-0.04-0.171-0.303-0.171
	c-0.105,0-0.605-0.025-1.131-0.025c-0.75,0-1.054,0.013-2.198,0.013c-0.618,0-1.711,0.013-2.25,0.013
	c-0.79,0-0.961-0.025-1.303-0.025h-0.447c-0.04,0.053-0.066,0.104-0.066,0.157c0,0.066,0.026,0.132,0.066,0.185
	c0.158,0.053,0.775,0.04,0.96,0.145c0.185,0.158,0.355,0.197,0.474,0.829c0.026,0.276,0.04,1.171,0.04,1.776v2.711
	c0,0.553-0.014,1.461-0.026,1.79c-0.026,0.513-0.211,1.158-0.289,1.276c-0.119,0.092-0.658,0.171-1.186,0.196
	c-0.039,0.079-0.064,0.132-0.064,0.211s0.025,0.118,0.064,0.185h0.436c0.421,0,1.474-0.039,1.828-0.039
	c0.329,0,0.776,0.025,1.539,0.025c0.422,0,1.658,0.079,4.317,0.079c0.105,0,0.223,0.014,0.355-0.025
	c0.038-0.066,0.038-0.093,0.052-0.211C168.007,11.307,168.007,10.662,168.007,9.596 M158.27,2.412c0-0.053-0.014-0.132-0.066-0.146
	h-0.447c-0.315,0-0.815,0.026-1.04,0.026c-1.064,0-1.446-0.066-1.604-0.066h-0.237c-0.025,0.066-0.065,0.106-0.065,0.171
	c0,0.054,0.026,0.093,0.026,0.146c0.329,0.04,0.618,0.104,0.908,0.198c0.158,0.156,0.329,0.473,0.329,0.829
	c0,0.131-0.132,0.75-0.316,1.196l-2.118,5.211l-2.605-6.593c0.039-0.315,0.21-0.618,0.434-0.737c0.225-0.025,0.5-0.104,0.855-0.104
	c0.027-0.053,0.053-0.131,0.053-0.184c0-0.054-0.013-0.133-0.065-0.146h-0.329c-0.408,0-1.026,0.053-1.725,0.053
	c-0.302,0-0.894-0.026-1.473-0.026h-0.514c-0.026,0.053-0.053,0.079-0.053,0.157c0,0.079,0.014,0.106,0.039,0.158
	c0.369,0.092,0.725,0.237,1.106,0.448c0.25,0.368,0.789,1.697,1.079,2.396l1.092,2.631c0.908,2.185,1.447,3.645,1.513,3.895
	c0.066,0.04,0,0.079,0.118,0.079c0.119,0,0.106-0.026,0.132-0.092l3.396-8.158c0.118-0.29,0.303-0.566,0.474-0.75
	c0.21-0.237,0.646-0.329,1.052-0.421C158.231,2.53,158.27,2.477,158.27,2.412 M146.743,11.583c0-0.066-0.013-0.131-0.039-0.184
	c-0.198-0.014-0.737-0.066-0.974-0.118c-0.211-0.25-0.356-0.54-0.448-1.015c-0.013-0.631-0.026-2.065-0.026-3.289V3.635
	c0-0.354,0.146-0.631,0.237-0.71c0.25-0.237,0.75-0.29,1.171-0.342c0.026-0.053,0.04-0.119,0.04-0.171
	c0-0.079-0.04-0.132-0.065-0.158h-0.383c-0.553,0-1.342,0.065-1.789,0.065c-0.276,0-1.065-0.039-1.645-0.053h-0.29
	c-0.039,0.053-0.066,0.053-0.066,0.171c0,0.053,0.015,0.105,0.027,0.172c0.645,0.053,0.935,0.117,1.026,0.184
	c0.158,0.119,0.382,0.408,0.434,1.119c0.014,0.25,0.027,0.921,0.04,2.131c0.013,0.658,0.026,1.553,0.026,2.316
	c0,0.382-0.026,1.368-0.039,1.828c-0.027,0.316-0.092,0.619-0.186,0.79c-0.156,0.133-0.314,0.368-1.275,0.435
	c-0.026,0.053-0.039,0.145-0.039,0.198c0,0.104,0.025,0.104,0.025,0.171h0.225c0.525,0,1.342-0.066,2.025-0.066
	c0.197,0,1.066,0.039,1.5,0.039h0.435C146.73,11.688,146.743,11.636,146.743,11.583 M140.794,2.385c0-0.052-0.013-0.092-0.039-0.131
	h-0.303c-0.658,0-0.947,0.026-2.132,0.026c-0.408,0-1.013-0.026-1.158-0.026h-0.342c-0.039,0.026-0.052,0.118-0.052,0.171
	c0,0.065,0.013,0.092,0.064,0.145c0.211,0.065,1.015,0.157,1.356,0.382c0.237,0.275,0.342,0.829,0.381,1.342
	c0.013,0.198,0.027,0.395,0.027,0.935v3.908c0,0.316-0.015,0.421-0.027,0.566c-0.223-0.25-0.605-0.737-1.118-1.343l-5.027-5.869
	c-0.038-0.053-0.117-0.118-0.196-0.171c-0.106,0-0.237-0.014-0.342-0.014c-0.844,0-1.579-0.039-1.804-0.039
	c-0.025,0.053-0.04,0.079-0.04,0.131c0,0.027,0.015,0.133,0.027,0.172c0.197,0.053,0.776,0.118,1.013,0.368
	c0.21,0.237,0.526,0.514,0.646,0.776c0.039,0.092,0.052,0.237,0.052,0.421c0,0.686-0.039,1.936-0.039,2.856v2.803
	c0,0.434-0.04,0.776-0.079,1c-0.275,0.289-0.698,0.5-1.382,0.671c-0.026,0.066-0.052,0.092-0.052,0.158
	c0,0.039,0.013,0.118,0.039,0.131h0.25c0.263,0,0.869-0.039,1.263-0.039c0.579,0,0.842,0.039,1.382,0.039h0.79
	c0.052-0.013,0.065-0.118,0.065-0.171c0-0.052-0.014-0.079-0.039-0.131c-0.461-0.119-1.132-0.225-1.579-0.816
	c-0.092-0.198-0.171-1.198-0.171-1.658c0-0.421-0.014-1.105-0.014-1.882c0-1.039,0.014-2.474,0.026-2.934
	c0.079,0.092,0.197,0.237,0.289,0.342l6.238,7.303c0.064,0.066,0.092,0.079,0.158,0.079c0.064,0,0.025,0,0.078-0.025
	c0.026-0.066,0.065-0.277,0.065-0.594c0-0.381-0.013-0.775-0.013-0.973V4.701c0-1.646,0.776-2.105,1.685-2.146
	C140.782,2.49,140.794,2.451,140.794,2.385 M128.61,2.451c0-0.054-0.026-0.132-0.066-0.171h-0.381c-0.408,0-0.961,0.025-1.435,0.025
	c-0.526,0-1.118-0.025-1.5-0.025h-0.475c-0.039,0.079-0.052,0.104-0.052,0.171c0,0.053,0.013,0.104,0.039,0.171
	c0.054,0,1.015,0.013,1.185,0.25c0.145,0.197,0.461,0.684,0.514,0.974c0.025,0.131,0.105,0.671,0.105,1.447
	c0,1.119,0,1.869-0.014,2.264c-0.025,0.737-0.105,1.316-0.236,1.75c-0.369,1.146-1.225,1.71-2.58,1.71
	c-0.578,0-1.078-0.117-1.539-0.329c-0.855-0.421-1.264-1.223-1.276-1.657l-0.066-3.947l-0.013-1.606
	c0-0.302,0.382-0.579,0.513-0.735c0.105-0.054,0.685-0.106,1.013-0.132c0.041-0.079,0.066-0.119,0.066-0.185
	s-0.039-0.132-0.092-0.171l-0.5,0.013c-0.487,0.014-1.132,0.026-1.54,0.026c-0.631,0-1.118-0.013-1.513-0.013h-0.553
	c-0.053,0.039-0.065,0.117-0.065,0.184s0.013,0.119,0.052,0.158c0.421,0.053,0.698,0.092,0.882,0.132
	c0.224,0.131,0.382,0.355,0.462,0.579c0.012,0.171,0.038,0.592,0.038,1.421v3.158c0,0.815,0.039,1.395,0.132,1.763
	c0.172,0.686,0.539,1.225,1.145,1.619c0.645,0.421,1.447,0.631,2.408,0.631c0.882,0,1.632-0.184,2.264-0.539
	c0.658-0.354,1.066-0.934,1.303-1.75c0.131-0.486,0.21-1.013,0.21-1.565V5.543c0-0.473,0.026-1.066,0.026-1.302
	c0.014-0.711,0.198-1.132,0.395-1.448c0.211-0.066,0.396-0.105,1.093-0.184C128.583,2.556,128.61,2.517,128.61,2.451"/>
<path fill="#FFFFFF" d="M11.346,2.123c-0.459,0.14-0.947,0.216-1.453,0.216c-1.789,0-3.351-0.94-4.193-2.339
	C4.855,1.398,3.293,2.339,1.505,2.339c-0.506,0-0.994-0.076-1.452-0.215C-0.066,3.488,0.02,4.836,0.291,6.132H11.1
	C11.382,4.78,11.459,3.434,11.346,2.123"/>
<path fill="#F48024" d="M1.783,10.092c0.363,0.649,0.781,1.271,1.246,1.858l2.665-2.593l2.673,2.599
	c0.461-0.581,0.878-1.2,1.245-1.854l-3.918-3.77L1.783,10.092z"/>
<path fill="#F48024" d="M3.029,11.95c0.766,0.967,1.66,1.841,2.666,2.594c0.996-0.743,1.896-1.611,2.672-2.587L5.693,9.358
	L3.029,11.95z"/>
<path fill="#F48024" d="M1.783,10.092l3.911-3.759l3.918,3.77c0.651-1.158,1.146-2.425,1.448-3.779
	c0.014-0.063,0.025-0.128,0.039-0.191H0.291C0.584,7.525,1.092,8.858,1.783,10.092"/>
<g>
	<path fill="#231F20" d="M5.694,9.183l-2.652,2.581c-0.41-0.528-0.78-1.082-1.103-1.648l3.755-3.609l3.761,3.619
		c-0.326,0.571-0.696,1.123-1.101,1.645L5.694,9.183z"/>
	<path fill="#231F20" d="M5.694,6.68l3.604,3.468c-0.288,0.496-0.609,0.977-0.958,1.435L5.869,9.178L5.694,9.009L5.52,9.179
		l-2.464,2.397c-0.353-0.464-0.674-0.946-0.959-1.438L5.694,6.68 M5.694,6.333l-3.911,3.759c0.363,0.649,0.781,1.271,1.246,1.858
		l2.665-2.593l2.673,2.599c0.461-0.581,0.878-1.2,1.245-1.854L5.694,6.333L5.694,6.333z"/>
</g>
<path fill="#231F20" d="M11.346,2.123c-0.459,0.14-0.947,0.216-1.453,0.216c-1.789,0-3.351-0.94-4.193-2.339
	C4.855,1.398,3.293,2.339,1.505,2.339c-0.506,0-0.994-0.076-1.452-0.215C-0.066,3.488,0.02,4.836,0.291,6.132H11.1
	C11.382,4.78,11.459,3.434,11.346,2.123"/>
<path fill="#FFFFFF" d="M8.363,3.636V3.177H8.082V2.854L7.788,2.771H7.768V2.495c0,0-0.103,0.122-0.568,0.122
	c-0.441,0-0.7-0.144-1.051-0.144c-0.338,0-0.441,0.193-0.441,0.193v0.111H5.696V2.667c0,0-0.106-0.193-0.44-0.193
	c-0.352,0-0.611,0.145-1.052,0.145c-0.466,0-0.547-0.122-0.547-0.122v0.29H3.639L3.319,2.854v0.323H3.037v0.459h0.282v0.743H3.037
	v0.46h0.282v0.572c0,0,0.473,0.074,0.909,0.074c0.518,0,0.816-0.075,1.15-0.082v0.145c0,0,0.135,0.067,0.316,0.067
	s0.326-0.067,0.326-0.067V5.403C6.355,5.41,6.655,5.485,7.174,5.485c0.436,0,0.908-0.074,0.908-0.074V4.839h0.281v-0.46H8.082V3.636
	H8.363z"/>
<g>
	<path fill="#231F20" d="M4.398,3.014C4.359,3.017,4.335,3.036,4.322,3.062l-0.156,0.35c0,0-0.008,0.006-0.014,0.006
		c-0.004,0-0.01-0.006-0.014-0.017C4.135,3.39,4.115,3.341,4.074,3.245L4.023,3.13C4.006,3.088,3.992,3.061,3.986,3.052
		C3.968,3.021,3.945,3.018,3.92,3.014C3.918,3.01,3.918,3.006,3.918,3.002c0-0.003,0-0.005,0.002-0.01h0.025
		c0.029,0,0.055,0.002,0.076,0.002c0.026,0,0.069-0.003,0.098-0.003h0.018c0.003,0.001,0.004,0.007,0.004,0.01
		c0,0.001,0,0.009-0.002,0.012C4.119,3.015,4.076,3.014,4.076,3.04c0,0.006,0.002,0.017,0.004,0.023L4.184,3.31L4.27,3.105
		c0.012-0.023,0.012-0.043,0.012-0.054c0-0.023-0.016-0.033-0.059-0.038C4.222,3.011,4.22,3.006,4.22,3.003s0.002-0.009,0.003-0.012
		h0.012c0.02,0,0.039,0.003,0.082,0.003c0.008,0,0.037-0.002,0.051-0.002h0.031C4.4,2.996,4.402,2.998,4.402,3.002
		C4.402,3.004,4.4,3.012,4.398,3.014"/>
	<path fill="#231F20" d="M4.836,3.406c-0.126,0-0.193-0.003-0.211-0.003c-0.014,0-0.044-0.001-0.059-0.001
		c-0.019,0-0.059,0.003-0.103,0.003L4.439,3.404C4.438,3.4,4.438,3.397,4.438,3.395c0-0.004,0-0.009,0-0.012
		C4.472,3.38,4.496,3.374,4.501,3.369c0.007-0.008,0.012-0.026,0.015-0.063c0-0.019,0-0.04,0-0.062c0-0.032,0-0.07,0-0.116V3.062
		c-0.002-0.046-0.023-0.046-0.07-0.051C4.443,3.008,4.443,3.004,4.443,3.001c0-0.002,0-0.009,0.004-0.011H4.47
		c0.015,0,0.056,0.001,0.136,0.001c0.071,0,0.142,0.002,0.156,0.002c0.01,0,0.038,0,0.043,0c0.01,0,0.014,0.001,0.014,0.01
		l0.006,0.094C4.818,3.1,4.818,3.101,4.812,3.101c-0.004,0-0.007,0-0.01-0.001C4.775,3.053,4.762,3.044,4.74,3.028
		c-0.008-0.007-0.019-0.01-0.035-0.012c-0.006,0-0.02-0.001-0.057-0.001c-0.028,0-0.043,0.001-0.047,0.002
		c-0.005,0-0.004-0.001-0.006,0.017c-0.001,0.01-0.002,0.027-0.002,0.083v0.054h0.016c0.018,0,0.035-0.002,0.047-0.005
		c0.016-0.004,0.033-0.016,0.041-0.03c0.004-0.005,0.009-0.026,0.011-0.034C4.71,3.1,4.715,3.099,4.721,3.099
		c0.004,0,0.008,0.001,0.01,0.003c0,0.018-0.002,0.05-0.002,0.09c0,0.02,0.002,0.063,0.002,0.081
		C4.727,3.276,4.725,3.277,4.718,3.277c-0.003,0-0.009-0.001-0.011-0.002c-0.004-0.035-0.01-0.06-0.04-0.072
		C4.65,3.197,4.638,3.195,4.621,3.195c-0.008,0-0.02,0.001-0.028,0.002v0.107c0,0.025,0.002,0.04,0.007,0.049
		c0.002,0.008,0.012,0.021,0.024,0.023C4.63,3.378,4.641,3.38,4.662,3.38h0.06c0.015,0,0.037-0.002,0.046-0.007
		c0.014-0.01,0.053-0.051,0.065-0.089c0.006-0.002,0.009-0.002,0.013-0.002s0.008,0.001,0.012,0.003v0.109
		C4.857,3.405,4.852,3.406,4.836,3.406"/>
	<path fill="#231F20" d="M5.334,3.122c-0.002,0-0.006-0.001-0.01-0.001C5.313,3.095,5.301,3.072,5.293,3.06
		C5.275,3.038,5.258,3.024,5.215,3.02C5.207,3.019,5.184,3.019,5.176,3.019L5.174,3.201c0,0.029,0,0.062,0.002,0.126
		c0,0.048,0.021,0.048,0.072,0.054c0.002,0.006,0.004,0.01,0.004,0.013c0,0.004-0.002,0.007-0.004,0.01H5.23
		c-0.029,0-0.087-0.002-0.105-0.002c-0.012,0-0.076,0.003-0.104,0.003C5.018,3.4,5.017,3.4,5.017,3.394
		c0-0.003,0.001-0.007,0.003-0.012c0.066-0.005,0.072-0.017,0.074-0.038C5.096,3.331,5.096,3.276,5.096,3.22v-0.15
		c0-0.02-0.001-0.038-0.004-0.051c-0.012,0-0.053,0-0.064,0.005C4.994,3.035,4.971,3.064,4.944,3.114
		C4.941,3.115,4.937,3.115,4.934,3.115c-0.004,0-0.008-0.001-0.01-0.004V3.005c0-0.01,0.002-0.012,0.013-0.012
		c0.01,0,0.024,0,0.045,0c0.015,0,0.075,0.001,0.151,0.001c0.099,0,0.173-0.002,0.191-0.002c0.01,0,0.018,0,0.021,0.003
		c0,0.002,0,0.01,0,0.015v0.107C5.344,3.121,5.338,3.122,5.334,3.122"/>
	<path fill="#231F20" d="M4.377,3.771c-0.004,0-0.006-0.001-0.012-0.001C4.356,3.744,4.345,3.722,4.334,3.708
		c-0.016-0.021-0.033-0.035-0.076-0.04c-0.01-0.001-0.032-0.001-0.04-0.001L4.217,3.851c0,0.028,0,0.062,0.001,0.126
		C4.219,4.024,4.24,4.024,4.291,4.03c0.002,0.006,0.002,0.009,0.002,0.012c0,0.004,0,0.007-0.002,0.01H4.273
		c-0.029,0-0.088-0.002-0.105-0.002c-0.012,0-0.075,0.004-0.105,0.004C4.061,4.049,4.06,4.049,4.06,4.042
		c0-0.003,0.001-0.006,0.002-0.011c0.065-0.004,0.072-0.017,0.075-0.038C4.138,3.98,4.138,3.925,4.138,3.869V3.718
		c0-0.019,0-0.037-0.003-0.051c-0.012,0-0.053,0-0.064,0.005c-0.033,0.013-0.057,0.04-0.082,0.092
		c-0.005,0.001-0.01,0.001-0.013,0.001c-0.004,0-0.006-0.001-0.009-0.005V3.654c0-0.01,0.002-0.012,0.012-0.012
		c0.012,0,0.025,0,0.045,0c0.016,0,0.076,0.001,0.152,0.001c0.098,0,0.173-0.002,0.191-0.002c0.01,0,0.018,0,0.021,0.003
		c0.001,0.002,0.001,0.01,0.001,0.015v0.107C4.386,3.771,4.382,3.771,4.377,3.771"/>
	<path fill="#231F20" d="M4.852,4.055c-0.125,0-0.194-0.003-0.211-0.003c-0.012,0-0.043-0.001-0.059-0.001
		c-0.018,0-0.059,0.003-0.102,0.003L4.455,4.053C4.453,4.049,4.452,4.047,4.452,4.044c0-0.004,0-0.009,0.002-0.013
		c0.034-0.002,0.058-0.008,0.062-0.014C4.524,4.01,4.528,3.992,4.53,3.955c0.001-0.019,0.002-0.04,0.002-0.062
		c0-0.031-0.001-0.069-0.001-0.116c0-0.032-0.001-0.052-0.001-0.064C4.529,3.666,4.508,3.666,4.461,3.661
		C4.459,3.657,4.459,3.653,4.459,3.65c0-0.002,0.002-0.01,0.004-0.012h0.022c0.017,0,0.056,0.001,0.135,0.001
		c0.073,0,0.142,0.002,0.158,0.002c0.009,0,0.038,0,0.042,0c0.012,0,0.016,0.001,0.016,0.011L4.84,3.746
		C4.836,3.749,4.834,3.75,4.828,3.75c-0.003,0-0.006,0-0.01-0.001c-0.025-0.047-0.04-0.056-0.062-0.072
		C4.748,3.671,4.738,3.668,4.721,3.666c-0.006,0-0.021-0.001-0.057-0.001c-0.027,0-0.043,0.001-0.046,0.002
		c-0.006,0-0.005-0.001-0.007,0.016c0,0.011-0.001,0.028-0.001,0.083V3.82h0.015c0.018,0,0.036-0.002,0.047-0.005
		c0.017-0.004,0.032-0.017,0.043-0.03C4.717,3.78,4.723,3.758,4.723,3.751c0.004-0.002,0.009-0.003,0.014-0.003
		s0.009,0.001,0.011,0.003C4.746,3.768,4.743,3.8,4.743,3.84c0,0.021,0.003,0.064,0.003,0.082C4.741,3.925,4.74,3.926,4.734,3.926
		c-0.004,0-0.01-0.001-0.012-0.002c-0.004-0.035-0.01-0.059-0.041-0.072C4.666,3.845,4.653,3.844,4.637,3.844
		c-0.008,0-0.019,0.001-0.027,0.001v0.109c0,0.025,0.002,0.04,0.005,0.049C4.618,4.01,4.629,4.024,4.639,4.026
		c0.007,0.001,0.018,0.003,0.039,0.003h0.061c0.016,0,0.036-0.002,0.044-0.007c0.015-0.011,0.054-0.052,0.067-0.09
		c0.005-0.002,0.009-0.002,0.013-0.002c0.002,0,0.007,0.001,0.011,0.003v0.11C4.873,4.054,4.866,4.055,4.852,4.055"/>
	<path fill="#231F20" d="M5.143,4.064c-0.033,0-0.072-0.014-0.096-0.025C5.043,4.037,5.035,4.036,5.031,4.036S5.015,4.042,5,4.052
		c-0.008,0-0.021-0.005-0.023-0.013c0-0.009,0.008-0.034,0.008-0.051c0-0.009-0.002-0.056-0.004-0.067
		c0.004-0.006,0.012-0.008,0.018-0.008c0.004,0,0.006,0,0.008,0c0.009,0.017,0.025,0.062,0.037,0.08
		c0.027,0.03,0.066,0.044,0.093,0.044c0.03,0,0.054-0.007,0.067-0.02c0.02-0.02,0.022-0.031,0.022-0.052
		c0-0.015-0.002-0.026-0.011-0.037c-0.012-0.014-0.02-0.019-0.043-0.03C5.154,3.891,5.089,3.874,5.066,3.861
		C5.037,3.849,5.022,3.836,5.009,3.82C4.992,3.798,4.984,3.77,4.984,3.745c0-0.066,0.053-0.116,0.127-0.116
		c0.028,0,0.066,0.003,0.1,0.028C5.218,3.65,5.226,3.643,5.234,3.634c0.014,0,0.021,0.008,0.022,0.012
		C5.256,3.655,5.25,3.681,5.25,3.702c0,0.011,0.007,0.054,0.007,0.061C5.252,3.766,5.248,3.77,5.24,3.77
		c-0.002,0-0.004-0.001-0.008-0.002C5.222,3.747,5.211,3.713,5.199,3.695C5.179,3.669,5.152,3.659,5.115,3.659
		c-0.041,0-0.074,0.026-0.074,0.062c0,0.034,0.027,0.052,0.051,0.062c0.018,0.007,0.039,0.015,0.062,0.021
		c0.03,0.012,0.053,0.02,0.066,0.026c0.048,0.024,0.068,0.061,0.068,0.109C5.289,4.016,5.22,4.064,5.143,4.064"/>
	<path fill="#231F20" d="M4.545,4.705c-0.127,0-0.194-0.003-0.211-0.003c-0.014,0-0.045-0.001-0.06-0.001
		c-0.019,0-0.058,0.003-0.103,0.003L4.147,4.703C4.146,4.699,4.146,4.697,4.146,4.694c0-0.004,0-0.01,0.001-0.013
		C4.18,4.679,4.205,4.673,4.209,4.668C4.217,4.66,4.221,4.642,4.224,4.605c0-0.02,0.001-0.04,0.001-0.062
		c0-0.032-0.001-0.07-0.001-0.117V4.362C4.223,4.316,4.2,4.316,4.153,4.312C4.152,4.307,4.151,4.303,4.151,4.3
		c0-0.002,0.001-0.009,0.004-0.011h0.022c0.016,0,0.057,0.001,0.136,0.001c0.071,0,0.142,0.002,0.157,0.002c0.01,0,0.037,0,0.043,0
		c0.01,0,0.014,0.001,0.014,0.01l0.006,0.095C4.527,4.399,4.526,4.4,4.521,4.4c-0.004,0-0.008,0-0.01-0.001
		C4.484,4.352,4.471,4.343,4.449,4.327C4.441,4.321,4.43,4.318,4.414,4.316c-0.007,0-0.021-0.001-0.057-0.001
		c-0.029,0-0.043,0.001-0.047,0.002c-0.006,0-0.004-0.001-0.006,0.016c-0.002,0.01-0.002,0.028-0.002,0.083V4.47h0.015
		c0.019,0,0.036-0.002,0.047-0.005c0.017-0.004,0.033-0.016,0.042-0.03C4.41,4.43,4.414,4.408,4.416,4.401
		C4.418,4.399,4.424,4.398,4.43,4.398c0.004,0,0.008,0.001,0.01,0.003c0,0.017-0.003,0.049-0.003,0.089
		c0,0.02,0.002,0.063,0.002,0.082C4.435,4.575,4.433,4.576,4.426,4.576c-0.002,0-0.008-0.001-0.01-0.002
		c-0.004-0.035-0.011-0.06-0.041-0.072C4.359,4.496,4.346,4.494,4.33,4.494c-0.009,0-0.02,0.001-0.029,0.002v0.108
		c0,0.024,0.002,0.04,0.007,0.049C4.311,4.66,4.32,4.674,4.332,4.676c0.006,0.001,0.017,0.003,0.039,0.003H4.43
		c0.016,0,0.037-0.002,0.046-0.007c0.014-0.01,0.053-0.051,0.065-0.089c0.006-0.002,0.01-0.002,0.014-0.002
		c0.003,0,0.007,0.001,0.012,0.003v0.11C4.566,4.704,4.56,4.705,4.545,4.705"/>
	<path fill="#231F20" d="M5.148,4.312C5.106,4.312,5.069,4.335,5.069,4.403L5.068,4.616c0,0.008,0.004,0.067,0.004,0.091
		C5.066,4.712,5.06,4.714,5.055,4.714c-0.002,0-0.006-0.002-0.01-0.007L4.752,4.393l0.004,0.064v0.116
		c0,0.009,0.002,0.031,0.004,0.047c0.002,0.026,0.01,0.035,0.021,0.044c0.014,0.013,0.038,0.017,0.055,0.018
		C4.838,4.687,4.84,4.689,4.84,4.692c0,0.002-0.002,0.007-0.004,0.011H4.805c-0.027,0-0.049-0.001-0.076-0.001
		c-0.018,0-0.044,0.002-0.062,0.002H4.652c-0.001-0.003-0.001-0.008-0.001-0.01s0-0.006,0.002-0.012
		c0.021-0.001,0.054-0.011,0.065-0.027c0.006-0.011,0.008-0.03,0.008-0.05V4.456c0-0.024-0.001-0.036-0.002-0.059
		c-0.001-0.02-0.006-0.034-0.014-0.046C4.709,4.349,4.699,4.339,4.69,4.33C4.68,4.322,4.657,4.315,4.644,4.31
		C4.642,4.306,4.641,4.301,4.641,4.3c0-0.002,0.001-0.008,0.003-0.011h0.01c0.009,0,0.054,0.003,0.089,0.003h0.02
		C4.766,4.293,4.772,4.298,4.774,4.3l0.217,0.237c0.017,0.018,0.037,0.042,0.05,0.057v-0.17c0-0.022-0.002-0.04-0.002-0.048
		C5.037,4.358,5.032,4.344,5.025,4.332C5.02,4.321,4.979,4.315,4.957,4.312c-0.002-0.005-0.002-0.01-0.002-0.013s0-0.006,0.002-0.01
		h0.012c0.021,0,0.053,0.003,0.074,0.003c0.049,0,0.064-0.001,0.09-0.001h0.016C5.15,4.294,5.15,4.299,5.15,4.301
		S5.15,4.308,5.148,4.312"/>
	<path fill="#231F20" d="M6.515,3.012C6.474,3.013,6.436,3.036,6.436,3.104v0.214c0,0.008,0.003,0.067,0.003,0.091
		C6.434,3.413,6.426,3.415,6.423,3.415S6.416,3.413,6.41,3.408L6.119,3.094l0.004,0.064v0.116c0,0.009,0.002,0.03,0.004,0.047
		c0.003,0.025,0.01,0.034,0.021,0.044c0.015,0.013,0.039,0.017,0.056,0.018c0.002,0.004,0.002,0.007,0.002,0.01
		c0,0.002,0,0.008-0.002,0.012H6.171c-0.026,0-0.048-0.001-0.076-0.001c-0.019,0-0.043,0.002-0.062,0.002H6.02
		C6.019,3.402,6.018,3.396,6.018,3.395s0-0.006,0.003-0.011c0.021-0.001,0.054-0.011,0.065-0.028
		c0.006-0.011,0.007-0.029,0.007-0.05V3.157c0-0.024,0-0.036-0.001-0.06C6.091,3.079,6.086,3.063,6.078,3.053
		C6.076,3.05,6.066,3.04,6.057,3.031C6.048,3.022,6.023,3.016,6.01,3.011c-0.001-0.004-0.002-0.009-0.002-0.01
		c0-0.002,0.001-0.008,0.002-0.011h0.011c0.009,0,0.054,0.003,0.089,0.003h0.02c0.003,0.001,0.01,0.006,0.013,0.008l0.218,0.237
		C6.375,3.256,6.396,3.28,6.408,3.295v-0.17c0-0.023-0.002-0.04-0.004-0.048c0-0.019-0.006-0.032-0.013-0.044
		C6.386,3.021,6.345,3.016,6.324,3.012C6.322,3.008,6.322,3.003,6.322,3s0-0.006,0.002-0.01h0.013c0.021,0,0.052,0.003,0.073,0.003
		c0.047,0,0.064-0.001,0.09-0.001h0.015C6.517,2.995,6.518,3,6.518,3.002S6.517,3.009,6.515,3.012"/>
	<path fill="#231F20" d="M6.879,3.052C6.858,3.023,6.833,3.008,6.795,3.008c-0.033,0-0.056,0.015-0.076,0.044
		C6.694,3.083,6.68,3.133,6.68,3.197c0,0.063,0.015,0.113,0.037,0.146c0.021,0.03,0.045,0.046,0.082,0.046
		c0.043,0,0.069-0.021,0.09-0.057C6.907,3.3,6.915,3.256,6.915,3.199C6.915,3.131,6.902,3.083,6.879,3.052 M6.945,3.354
		c-0.04,0.04-0.096,0.062-0.148,0.062c-0.049,0-0.104-0.021-0.144-0.06C6.609,3.315,6.59,3.26,6.59,3.199
		c0-0.06,0.02-0.114,0.063-0.157C6.699,2.999,6.748,2.98,6.799,2.98c0.036,0,0.069,0.009,0.109,0.03
		C6.973,3.052,7.01,3.12,7.01,3.194C7.01,3.253,6.986,3.312,6.945,3.354"/>
	<path fill="#231F20" d="M7.533,3.014C7.497,3.017,7.472,3.036,7.46,3.062l-0.157,0.35c0,0-0.008,0.006-0.013,0.006
		c-0.004,0-0.011-0.006-0.015-0.017C7.271,3.39,7.253,3.341,7.211,3.245L7.161,3.13C7.143,3.088,7.128,3.061,7.124,3.052
		C7.104,3.021,7.082,3.018,7.057,3.014C7.054,3.01,7.054,3.006,7.054,3.002c0-0.003,0-0.005,0.002-0.01h0.026
		c0.029,0,0.054,0.002,0.076,0.002c0.025,0,0.068-0.003,0.099-0.003h0.017c0.004,0.001,0.004,0.007,0.004,0.01
		c0,0.001,0,0.009-0.002,0.012C7.256,3.015,7.214,3.014,7.214,3.04c0,0.006,0,0.017,0.004,0.023L7.32,3.31l0.086-0.204
		c0.011-0.023,0.012-0.043,0.012-0.054c0-0.023-0.016-0.033-0.061-0.038c0-0.003,0-0.008,0-0.011s0-0.009,0-0.012h0.014
		c0.02,0,0.037,0.003,0.082,0.003c0.007,0,0.037-0.002,0.052-0.002h0.03c0.002,0.004,0.003,0.006,0.003,0.01
		C7.538,3.004,7.537,3.012,7.533,3.014"/>
	<path fill="#231F20" d="M6.379,3.771c-0.004,0-0.006-0.001-0.012-0.001C6.358,3.744,6.347,3.722,6.336,3.708
		C6.32,3.688,6.303,3.673,6.26,3.668C6.25,3.667,6.228,3.667,6.22,3.667L6.219,3.851c0,0.028,0,0.062,0.001,0.126
		C6.221,4.024,6.242,4.024,6.293,4.03c0.002,0.006,0.002,0.009,0.002,0.012c0,0.004,0,0.007-0.002,0.01H6.275
		c-0.029,0-0.088-0.002-0.105-0.002c-0.012,0-0.075,0.004-0.105,0.004C6.062,4.049,6.062,4.049,6.062,4.042
		c0-0.003,0.001-0.006,0.002-0.011c0.065-0.004,0.072-0.017,0.075-0.038C6.14,3.98,6.14,3.925,6.14,3.869V3.718
		c0-0.019,0-0.037-0.003-0.051c-0.012,0-0.053,0-0.065,0.005c-0.032,0.013-0.056,0.04-0.082,0.092
		C5.985,3.765,5.98,3.765,5.978,3.765c-0.004,0-0.006-0.001-0.009-0.005V3.654c0-0.01,0.002-0.012,0.012-0.012
		c0.012,0,0.025,0,0.045,0c0.016,0,0.076,0.001,0.152,0.001c0.098,0,0.173-0.002,0.191-0.002c0.01,0,0.018,0,0.021,0.003
		c0.001,0.002,0.001,0.01,0.001,0.015v0.107C6.388,3.771,6.383,3.771,6.379,3.771"/>
	<path fill="#231F20" d="M6.614,3.727L6.614,3.727C6.605,3.741,6.59,3.777,6.584,3.793C6.562,3.847,6.555,3.864,6.551,3.872h0.123
		C6.664,3.848,6.633,3.771,6.614,3.727 M6.876,4.055H6.844c-0.021,0-0.045-0.003-0.07-0.003c-0.039,0-0.09,0.003-0.108,0.003
		C6.663,4.053,6.662,4.049,6.662,4.044c0-0.002,0.001-0.007,0.002-0.01c0.04-0.002,0.057-0.009,0.057-0.024
		c0-0.007,0-0.021-0.013-0.055C6.696,3.926,6.689,3.911,6.686,3.904c-0.002-0.003-0.002-0.005-0.01-0.005H6.545
		c-0.009,0.01-0.02,0.039-0.031,0.079C6.512,3.989,6.512,3.999,6.512,4.003c0,0.014,0.012,0.028,0.058,0.029
		c0.003,0.005,0.003,0.01,0.003,0.012c0,0.003,0,0.007-0.001,0.01H6.561c-0.031,0-0.041-0.002-0.072-0.002
		c-0.021,0-0.072,0.002-0.089,0.002C6.398,4.051,6.396,4.049,6.396,4.045c0-0.002,0-0.006,0.003-0.011
		c0.024-0.005,0.047-0.013,0.059-0.029c0.007-0.011,0.029-0.05,0.054-0.108c0.022-0.055,0.051-0.125,0.062-0.155
		c0.018-0.034,0.023-0.048,0.029-0.06c0.008-0.019,0.018-0.036,0.021-0.043c0.004-0.005,0.012-0.008,0.016-0.008
		c0.008,0,0.016,0.005,0.019,0.009c0.004,0.008,0.009,0.016,0.011,0.02c0.023,0.059,0.043,0.108,0.072,0.18
		c0.016,0.036,0.023,0.059,0.039,0.096c0.012,0.024,0.018,0.041,0.029,0.062c0.016,0.031,0.041,0.032,0.065,0.038
		c0.001,0.003,0.005,0.007,0.005,0.01C6.881,4.049,6.879,4.051,6.876,4.055"/>
	<path fill="#231F20" d="M7.517,4.055L7.349,4.053H7.303C7.301,4.05,7.3,4.044,7.3,4.043c0-0.007,0.001-0.008,0.004-0.012
		c0.009-0.001,0.03,0,0.041-0.004C7.363,4.02,7.369,4.004,7.369,3.979V3.736V3.681H7.367L7.279,3.874
		C7.271,3.895,7.259,3.918,7.25,3.94C7.229,3.985,7.219,4.017,7.213,4.034c-0.004,0.009-0.01,0.009-0.014,0.009
		c-0.006,0-0.01-0.002-0.013-0.013C7.176,4.006,7.168,3.989,7.164,3.979L7.025,3.675H7.022v0.078l0.003,0.193
		c0,0.06,0.031,0.087,0.078,0.087c0.002,0.003,0.004,0.01,0.004,0.011c0,0.002-0.001,0.007-0.003,0.01
		c-0.003,0-0.013,0.001-0.021,0.001c-0.006,0-0.037-0.003-0.082-0.003c-0.012,0-0.037,0.001-0.057,0.001H6.916
		c0-0.003-0.002-0.007-0.002-0.01c0,0,0.002-0.007,0.002-0.01C6.928,4.03,6.969,4.021,6.977,4.013
		c0.01-0.008,0.018-0.026,0.018-0.067V3.848V3.732C6.992,3.698,6.988,3.686,6.972,3.675C6.966,3.67,6.939,3.667,6.918,3.663
		C6.916,3.659,6.914,3.655,6.914,3.651c0-0.003,0.002-0.006,0.004-0.011c0.016,0,0.045,0.002,0.074,0.002h0.1
		c0.004,0.003,0.006,0.005,0.009,0.01l0.124,0.281l0.021-0.056c0.02-0.045,0.047-0.113,0.086-0.187
		c0.01-0.017,0.02-0.037,0.025-0.048l0.157-0.003c0.002,0.004,0.004,0.007,0.004,0.01c0,0.005-0.001,0.007-0.003,0.011
		C7.498,3.664,7.469,3.664,7.455,3.688C7.449,3.695,7.447,3.703,7.447,3.737v0.2c0,0.077,0.019,0.084,0.027,0.09
		C7.479,4.03,7.504,4.033,7.517,4.033C7.519,4.037,7.52,4.041,7.52,4.044C7.52,4.051,7.518,4.051,7.517,4.055"/>
	<path fill="#231F20" d="M6.37,4.421c-0.005,0-0.007-0.001-0.013-0.001C6.35,4.395,6.337,4.371,6.326,4.358
		C6.311,4.337,6.293,4.323,6.25,4.318C6.24,4.317,6.218,4.317,6.21,4.317L6.209,4.5c0,0.029,0,0.063,0.001,0.126
		c0.001,0.048,0.022,0.048,0.073,0.055c0.003,0.006,0.003,0.009,0.003,0.012c0,0.004,0,0.007-0.003,0.01H6.266
		C6.236,4.702,6.178,4.7,6.161,4.7c-0.013,0-0.076,0.003-0.106,0.003C6.053,4.699,6.052,4.699,6.052,4.692
		c0-0.003,0.001-0.006,0.002-0.011C6.12,4.677,6.126,4.664,6.129,4.644C6.13,4.63,6.13,4.575,6.13,4.52V4.368
		c0-0.019,0-0.038-0.003-0.051c-0.012,0-0.053,0-0.064,0.005C6.029,4.334,6.006,4.363,5.98,4.413
		c-0.004,0.001-0.01,0.001-0.013,0.001c-0.004,0-0.006-0.001-0.009-0.004V4.305c0-0.011,0.002-0.013,0.012-0.013
		c0.012,0,0.025,0,0.045,0c0.016,0,0.076,0.001,0.152,0.001c0.098,0,0.173-0.002,0.191-0.002c0.011,0,0.018,0,0.021,0.003
		C6.382,4.296,6.381,4.305,6.381,4.31v0.106C6.378,4.42,6.374,4.421,6.37,4.421"/>
	<path fill="#231F20" d="M6.885,4.312C6.848,4.315,6.822,4.336,6.811,4.361L6.654,4.712c0,0-0.008,0.006-0.013,0.006
		S6.63,4.712,6.627,4.7C6.623,4.688,6.604,4.64,6.562,4.545L6.512,4.43c-0.018-0.042-0.033-0.07-0.037-0.079
		c-0.02-0.031-0.042-0.034-0.066-0.038C6.404,4.309,6.404,4.306,6.404,4.302c0-0.003,0-0.005,0.004-0.01h0.024
		c0.029,0,0.054,0.002,0.076,0.002c0.026,0,0.069-0.003,0.099-0.003h0.017c0.004,0.001,0.005,0.007,0.005,0.01
		c0,0.001,0,0.008-0.002,0.011C6.607,4.313,6.564,4.312,6.564,4.34c0,0.006,0,0.016,0.004,0.022l0.103,0.246l0.087-0.204
		C6.768,4.382,6.77,4.361,6.77,4.351c0-0.023-0.017-0.033-0.06-0.038C6.709,4.31,6.708,4.306,6.708,4.303S6.709,4.294,6.71,4.291
		h0.012c0.019,0,0.038,0.003,0.082,0.003c0.007,0,0.038-0.002,0.052-0.002h0.03c0.002,0.004,0.003,0.006,0.003,0.009
		S6.888,4.311,6.885,4.312"/>
	<path fill="#231F20" d="M7.525,4.705L7.358,4.703H7.312c-0.003-0.004-0.003-0.01-0.003-0.011c0-0.006,0-0.007,0.004-0.011
		c0.01-0.001,0.031,0,0.042-0.004C7.371,4.67,7.377,4.653,7.377,4.629V4.387c0,0,0.002-0.044,0.002-0.056H7.377L7.289,4.523
		c-0.01,0.021-0.021,0.044-0.031,0.067c-0.02,0.045-0.03,0.076-0.037,0.094C7.219,4.692,7.213,4.692,7.209,4.692
		c-0.006,0-0.01-0.002-0.014-0.012C7.186,4.655,7.178,4.64,7.174,4.629l-0.14-0.305H7.031v0.078l0.003,0.194
		c0.001,0.059,0.031,0.087,0.079,0.087c0.002,0.003,0.003,0.009,0.003,0.01c0,0.002,0,0.007-0.002,0.011
		c-0.004,0-0.013,0.001-0.022,0.001c-0.006,0-0.035-0.004-0.08-0.004C7,4.701,6.973,4.703,6.954,4.703H6.926
		C6.924,4.699,6.924,4.695,6.924,4.692c0-0.001,0-0.006,0.002-0.009c0.011-0.003,0.053-0.013,0.061-0.021
		c0.008-0.009,0.016-0.026,0.016-0.067V4.498V4.383c0-0.034-0.004-0.047-0.021-0.059C6.975,4.319,6.948,4.316,6.928,4.313
		C6.924,4.31,6.924,4.306,6.924,4.302c0-0.003,0-0.006,0.004-0.011c0.015,0,0.045,0.002,0.072,0.002h0.102
		c0.003,0.003,0.006,0.005,0.008,0.01l0.124,0.281l0.022-0.057c0.019-0.045,0.047-0.112,0.086-0.186
		c0.008-0.018,0.02-0.037,0.025-0.048l0.156-0.003c0.002,0.004,0.005,0.007,0.005,0.01c0,0.005-0.002,0.007-0.004,0.011
		c-0.017,0.003-0.046,0.003-0.06,0.027c-0.006,0.007-0.01,0.015-0.01,0.049v0.2c0,0.077,0.02,0.084,0.029,0.09
		c0.004,0.003,0.027,0.006,0.041,0.006c0.003,0.004,0.004,0.007,0.004,0.01C7.529,4.7,7.527,4.7,7.525,4.705"/>
</g>
<path fill="#231F20" d="M8.03,5.364C7.909,5.383,7.527,5.433,7.172,5.433c-0.512,0-1.141-0.08-1.147-0.081L5.969,5.344v0.168
	C5.922,5.529,5.815,5.562,5.691,5.562c-0.121,0-0.221-0.033-0.266-0.05V5.344L5.37,5.352C5.363,5.353,4.733,5.433,4.225,5.433
	c-0.356,0-0.739-0.05-0.86-0.068V2.89c0.045-0.01,0.179-0.037,0.244-0.052v2.243c0.024,0.052,0.127,0.17,0.596,0.17l0.593-0.077
	l0.455-0.065c0.303,0,0.397,0.162,0.401,0.168L5.668,5.27h0.069L5.75,5.276C5.754,5.27,5.848,5.108,6.148,5.108l0.453,0.065
	l0.598,0.077c0.475,0,0.594-0.125,0.605-0.139l0.01-2.286C7.877,2.844,7.99,2.875,8.03,2.887V5.364z M3.707,2.585
	c0.078,0.04,0.219,0.081,0.497,0.081l0.597-0.079l0.455-0.063c0.297,0,0.392,0.158,0.396,0.167v2.447
	c-0.072-0.061-0.193-0.126-0.4-0.126L4.776,5.077L4.204,5.154c-0.419,0-0.506-0.102-0.507-0.103
	C3.697,5.052,3.705,2.753,3.707,2.585 M5.75,2.69c0.004-0.007,0.098-0.167,0.398-0.167l0.453,0.063l0.598,0.078
	c0.289,0,0.438-0.045,0.52-0.084v2.495c-0.008-0.012-0.125,0.078-0.52,0.078L6.622,5.077L6.148,5.012
	c-0.206,0-0.326,0.064-0.398,0.125V2.69z M7.814,2.725l0.001-0.353L7.73,2.462C7.729,2.463,7.625,2.568,7.199,2.568L6.622,2.491
	L6.148,2.426c-0.26,0-0.391,0.105-0.447,0.17c-0.057-0.064-0.188-0.17-0.445-0.17L4.78,2.491L4.204,2.569
	c-0.419,0-0.506-0.101-0.507-0.102L3.61,2.36L3.608,2.496v0.241L3.268,2.81v2.64l0.041,0.007c0.005,0,0.48,0.074,0.916,0.074
	c0.431,0,0.941-0.056,1.103-0.075v0.119l0.027,0.014C5.36,5.592,5.502,5.661,5.691,5.661c0.191,0,0.342-0.068,0.348-0.072
	l0.028-0.014v-0.12C6.229,5.475,6.738,5.53,7.172,5.53s0.91-0.074,0.914-0.074l0.041-0.007V2.812L7.814,2.725z"/>
</svg>
