<svg xmlns="http://www.w3.org/2000/svg" width="80.497" height="10.338" viewBox="0 0 80.497 10.338"><path d="M19.251 8.3c-.42.492-.936.875-1.547 1.127a4.311 4.311 0 0 1-1.691.348c-.959 0-1.799-.288-2.53-.863-.972-.78-1.571-2.099-1.571-3.479 0-.863.216-1.667.636-2.411.659-1.187 2.11-2.207 3.742-2.207.731 0 1.415.204 2.11.611 1.283.768 1.943 2.015 1.943 3.694 0 1.261-.372 2.329-1.092 3.18zm-1.163-6.248c-.42-.528-1.115-.864-1.859-.864-.479 0-.959.144-1.427.492-.876.648-1.355 1.991-1.355 3.694 0 1.151.276 2.47.792 3.178.396.551 1.055.852 1.822.852.564 0 1.056-.156 1.451-.456.792-.576 1.344-2.207 1.344-4.066 0-1.271-.252-2.194-.768-2.83zm9.025 3.154a4.52 4.52 0 0 1-1.392.216c-.42 0-1.008-.024-1.728-.072l.036 2.867c0 .36.12.563.24.708.228.264.768.336 1.127.384.024.048.024.072.024.144 0 .06 0 .096-.036.144h-.3c-.443 0-1.031-.048-2.099-.048-.432 0-1.344.048-1.728.048-.023-.06-.036-.024-.036-.12 0-.108.013-.12.024-.18.252-.024.516-.084.695-.12.396-.12.636-.492.684-.852.036-.288.048-1.739.048-4.27 0-.912-.023-1.535-.06-1.955-.072-.348-.12-.504-.324-.684-.239-.06-.611-.12-.839-.192-.036-.06-.036-.12-.036-.168s.023-.084.06-.144c.372 0 .899.048 1.344.048.636 0 1.331-.072 2.255-.072 1.055 0 1.738.108 2.135.276.768.336 1.283 1.14 1.283 2.027.002.899-.526 1.703-1.377 2.015zm-.301-3.227c-.3-.516-.935-.755-1.906-.755-.42 0-.72.048-.899.06l-.013 3.634c0 .06.072.072.181.084.096.012.384.024.684.024.72 0 1.235-.12 1.535-.335.479-.348.731-.924.731-1.547 0-.433-.121-.84-.313-1.165zm10.785-.791c-.239.06-.611.132-.779.24-.24.144-.6.492-.768.804L34.215 5.89a.72.72 0 0 0-.084.324c0 .012-.012.156 0 .3l.108 1.799c.023.468.119.564.312.768.12.12.659.192 1.043.24.036.06.049.096.049.156s-.036.108-.061.156c-.216 0-.527-.012-.936-.024-.707-.012-1.188-.024-1.439-.024-.359 0-1.091.012-1.702.012-.013-.048-.036-.084-.036-.144s.012-.084.06-.168c.276-.024.876-.108.96-.156.203-.132.384-.408.384-.924 0-.611-.024-1.103-.108-1.439a4.656 4.656 0 0 0-.384-.899l-2.099-4.114c-.084-.156-.324-.3-1.128-.492a.264.264 0 0 1-.048-.144c0-.084.024-.096.072-.18.096 0 .899.036 1.487.036 1.379 0 1.247-.036 2.051-.036h.216c.036.06.072.036.072.12 0 .048-.013.12-.036.18-.504.06-.876.083-.983.3a.786.786 0 0 0-.048.312c0 .108.023.276.048.324l.671 1.463c.168.36.804 1.655 1.116 2.183.191-.264.479-.875 1.031-1.991.323-.66.552-1.127.659-1.427.061-.156.072-.3.072-.444a.871.871 0 0 0-.108-.468c-.096-.168-.6-.251-.947-.324a.45.45 0 0 1-.023-.144c0-.06.012-.072.048-.144.323 0 1.067.048 1.679.048.252 0 .899-.036 1.392-.036.023.048.072.072.072.144-.001.047-.025.095-.05.155zm8.88 8.408h-1.343c-.456 0-.695-.024-.792-.036-.228-.024-.323-.24-.359-.492-.12-.875-.372-2.027-.756-2.626a2.647 2.647 0 0 0-1.151-.972c-.312-.144-.636-.168-.959-.168-.097 0-.216 0-.312.012l.013 3.01c0 .42.216.708.516.852.132.024.432.096.672.12.023.048.048.096.048.18 0 .048-.024.084-.048.132-.685 0-.972-.036-1.739-.036-.384 0-1.859.036-2.027.036-.026-.061-.05-.108-.05-.145 0-.06.024-.108.06-.167.24-.012.528-.06.685-.084.348-.144.455-.504.491-.804.06-.456.048-1.991.048-3.214 0-1.691-.012-2.771-.071-3.154-.12-.264-.217-.432-.504-.647a14.793 14.793 0 0 0-.768-.108c-.013-.048-.024-.12-.024-.168s.024-.072.061-.156c.071 0 .527.024.707.024.42 0 1.104.024 1.283.024.6 0 1.331-.084 2.231-.084.635 0 1.151.048 1.438.132.876.276 1.499 1.199 1.499 2.171 0 .647-.264 1.188-.743 1.547-.228.18-.432.324-1.319.432a4.306 4.306 0 0 0-.491.072c.144.06.3.12.491.192.42.144.731.3.84.396.287.264.636.839.888 1.439.18.456.348.948.503 1.499.049.084.145.228.204.3.18.132.672.156.792.156.036.048.06.12.06.18s-.025.106-.074.155zm-2.95-7.628c-.407-.588-.923-.696-2.051-.696-.3 0-.563.036-.611.072-.048.036-.084.12-.084.276v2.267l.012 1.043c.18.024.36.024.504.024.54 0 .959-.036 1.247-.096.708-.156 1.319-1.007 1.319-1.775 0-.42-.108-.791-.336-1.115zm7.572 7.615h-.396c-.396 0-1.283-.036-1.463-.036-.624 0-1.463.06-1.943.06h-.203c0-.06-.024-.06-.024-.156 0-.048.012-.132.036-.18.875-.06 1.02-.276 1.163-.396.084-.156.145-.432.168-.72.012-.42.036-1.319.036-1.667 0-.696-.012-1.511-.024-2.111a70.675 70.675 0 0 0-.035-1.943c-.049-.648-.252-.912-.396-1.02-.084-.06-.348-.12-.936-.168-.012-.06-.023-.108-.023-.156 0-.108.023-.108.06-.156h.264c.528.012 1.344.048 1.596.048.407 0 1.223-.06 1.727-.06h.348a.202.202 0 0 1 .061.144.385.385 0 0 1-.036.156c-.384.048-.84.096-1.067.312-.084.072-.216.324-.216.647V5.23c0 1.115.012 2.422.023 2.998.084.432.216.696.408.924.213.048.705.096.885.108a.398.398 0 0 1 .036.168.29.29 0 0 1-.049.155zM61.25 5.866c-.145.012-.636.072-.78.12-.191.072-.228.132-.252.384-.023.276-.048.756-.048 1.427 0 .468.096.78.348 1.14-.036.143-.072.203-.169.203-.096 0-.491-.252-.779-.252-.216 0-.42.036-.636.108-.563.204-1.295.744-2.578.744-.768 0-1.487-.144-2.159-.527-1.067-.6-2.087-2.003-2.087-3.838 0-1.332.396-2.423 1.224-3.274.791-.815 1.703-1.235 3.034-1.235 1.02 0 1.679.312 2.375.815.12-.216.216-.396.371-.54.072-.012.12-.024.265-.012.095.011.167.071.251.131-.061.372-.133.863-.133 1.199s.168.731.288 1.031c0 .084-.144.18-.3.18-.096-.072-.204-.216-.348-.48a5.406 5.406 0 0 0-1.104-1.379 2.292 2.292 0 0 0-1.57-.611c-1.139 0-2.183.792-2.59 2.291a6.509 6.509 0 0 0-.216 1.727c0 .792.107 1.643.407 2.315.24.516.684 1.02 1.188 1.415.24.204.54.384.624.408.06.012.335.048.563.048.455 0 .936-.108 1.379-.312.384-.18.684-.492.899-.959.12-.252.18-.516.18-.792 0-.504-.023-.804-.06-.924-.084-.264-.264-.396-.54-.467-.155-.036-.731-.06-.839-.084a.368.368 0 0 1-.048-.18c0-.072.023-.108.06-.168h.396c.312 0 .804.036 1.308.036.552 0 1.031-.036 1.774-.036h.324c.024.048.061.096.061.168 0 .072-.036.107-.083.18zm9.827 3.717h-.384c-.54 0-1.031-.024-1.823-.024-.527 0-1.391.012-1.703.012a.44.44 0 0 1-.036-.167c0-.06.013-.096.049-.156.228-.012.707-.024.899-.144.216-.132.323-.456.323-1.007V6.273c0-.396-.023-.792-.023-.948-.168 0-.624-.012-.924-.012H65.38c-.335 0-.755.012-.863.012v2.867c.072.492.216.852.492 1.007.18.048.468.084.839.108a.398.398 0 0 1 .048.18c0 .048-.023.108-.071.12h-.336c-.552 0-1.211-.048-1.991-.048-.6 0-.959.024-1.415.024h-.288a.285.285 0 0 1-.036-.132c0-.036.013-.096.049-.156.791-.096 1.115-.252 1.235-.636.06-.18.096-.48.107-.888l.048-1.667c.012-.408.012-.792.012-1.127 0-1.343-.084-2.626-.096-2.866-.107-.432-.252-.588-.491-.78a6.608 6.608 0 0 0-.756-.084.65.65 0 0 1-.026-.143c0-.06.024-.132.049-.156h.275c.516 0 1.079.024 1.703.024.275 0 .983-.012 1.463-.012.132 0 .396.012.492.012.023.036.048.024.048.108a.29.29 0 0 1-.048.18c-.684.024-1.164.144-1.296.827-.035.216-.06.66-.06 1.392 0 .611.036 1.079.048 1.391.36.012 1.823.048 2.111.048.72 0 1.415-.024 1.763-.048.024-.3.048-.947.048-1.127 0-.875-.036-1.451-.096-1.775-.108-.504-.372-.648-1.163-.696a.348.348 0 0 1-.036-.168c0-.084.036-.096.071-.132.78.012 1.26.024 1.859.024.312 0 .947-.024 1.367-.024h.576a.26.26 0 0 1 .048.132c0 .06-.013.132-.048.168-.852.024-1.26.408-1.26 1.188l-.012 4.845c0 .468.036.923.048 1.164.06.24.3.624.563.719.144.036.396.084.72.084.024.06.048.096.048.132a.286.286 0 0 1-.045.179zm9.288-6.032c-.071 0-.107 0-.18-.024-.216-.564-.432-1.031-.636-1.307-.323-.432-.684-.708-1.427-.912-.36-.012-1.104 0-1.271 0 0 2.075-.012 2.926-.012 4.042 0 .864.012 1.476.023 2.771 0 .42.072.768.108.9.336.251 1.104.228 1.235.228.035.06.048.096.048.168 0 .06 0 .12-.036.18h-.336c-.731 0-1.487-.036-1.835-.036-.432 0-1.115.048-1.56.048h-.467c-.013-.048-.013-.096-.013-.144 0-.096 0-.12.036-.204 1.439-.06 1.379-.312 1.428-.648.023-.192.035-1.103.035-2.866 0-2.039 0-2.507-.012-3.37a25.397 25.397 0 0 0-.036-1.056c-.191 0-1.307.012-1.667.048-.636.324-1.14.911-1.679 2.003-.048.024-.096.024-.145.024a.21.21 0 0 1-.144-.048v-2.17c0-.168.048-.204.204-.204h.888c.671 0 1.787.024 3.273.024 1.919 0 3.694-.048 4.054-.048.181 0 .252.048.252.228v2.327a.208.208 0 0 1-.128.046zM5.193 10.338C2.339 10.338 0 8.012 0 5.157 0 2.327 2.339 0 5.193 0c2.831 0 5.169 2.327 5.169 5.157 0 2.855-2.338 5.181-5.169 5.181zm0-9.918A4.724 4.724 0 0 0 .456 5.157c0 2.65 2.099 4.773 4.737 4.773 2.627 0 4.714-2.123 4.714-4.773A4.711 4.711 0 0 0 5.193.42zm2.063 6.788c-.348.492-1.032.852-1.979.852-.743 0-1.379-.216-1.799-.528-.684-.516-1.103-1.32-1.103-2.315 0-.936.3-1.679.828-2.195a2.683 2.683 0 0 1 1.943-.78c.875 0 1.271.252 1.703.552.095-.12.143-.228.251-.312a.96.96 0 0 1 .324.096c0 .156-.061.54-.061.768 0 .192.072.779.072.875-.023.037-.143.085-.191.085-.071 0-.144-.024-.191-.036-.12-.408-.264-.755-.396-.936-.3-.396-.708-.671-1.2-.671-.588 0-1.151.479-1.403 1.163-.18.504-.216.767-.216 1.331 0 .587.12 1.139.228 1.379.204.48.743 1.008 1.535 1.008.563 0 1.079-.264 1.523-.899.012 0 .048-.012.071-.012.18 0 .252.144.276.204-.059.131-.071.191-.215.371z"/></svg>