<svg xmlns="http://www.w3.org/2000/svg" width="215.998" height="14.544" viewBox="0 0 215.998 14.544"><path fill="#FFF" d="M113.669 2.477a.427.427 0 0 0-.039-.184h-.303c-.658 0-1.078.025-2.262.025-.408 0-1.013-.025-1.158-.025h-.341c-.04.025-.054.171-.054.224 0 .066.014.171.066.225.21.064 1.013.156 1.354.381.235.276.342.829.381 1.342.013.198.026.395.026.935v2.75c0 .316-.014.422-.026.566-.223-.25-.538-.724-1.064-1.316l-4.394-4.868a.865.865 0 0 0-.197-.172c-.106 0-.29-.013-.396-.013-.842 0-2.368-.04-2.592-.04a.498.498 0 0 0-.053.186c0 .025.026.21.04.25.197.052.632.117.986.5.211.235.579.564.698.829.039.092.052.235.052.421 0 .684-.039 1.645-.039 2.565v2.671c0 .435-.039.776-.079 1-.275.29-.697.5-1.382.671a.784.784 0 0 0-.052.237c0 .039.013.171.039.185h.25c.263 0 .869-.039 1.263-.039.579 0 .974.039 1.514.039h.789c.054-.014.065-.172.065-.224a.603.603 0 0 0-.038-.211c-.462-.118-1.132-.224-1.579-.815-.094-.197-.172-1.172-.172-1.633 0-.421-.014-1-.014-1.775 0-1.04.014-1.948.027-2.408.079.092.171.21.236.289l6.078 6.83c.066.065.303.079.367.079.066 0 .106 0 .158-.027.027-.065.119-.276.119-.592 0-.381-.013-.776-.013-.974V4.872c0-1.646.776-2.105 1.685-2.146a.53.53 0 0 0 .054-.249M98.592 6.662c0 1.986-.551 3.736-1.301 4.355-.383.315-.856.474-1.396.474-.737 0-1.382-.289-1.75-.882-.5-.764-.777-2.185-.777-3.422 0-1.829.474-3.263 1.316-3.961.448-.368.907-.513 1.368-.513.711 0 1.396.342 1.789.908.501.685.751 1.672.751 3.041m2.383.25c0-1.842-.816-3.25-2.342-4.092-.816-.448-1.633-.673-2.5-.673-1.922 0-3.658 1.146-4.436 2.448a5.03 5.03 0 0 0-.763 2.658c0 1.513.737 3 1.882 3.855.868.632 1.855.947 3 .947a5.46 5.46 0 0 0 2-.382 4.71 4.71 0 0 0 1.829-1.25c.855-.932 1.33-2.129 1.33-3.511M89.408 5.254V2.568c0-.196-.078-.25-.277-.25-.395 0-2.474.054-4.578.054-1.633 0-2.987-.026-3.725-.026h-.974c-.171 0-.224.039-.224.223v2.515a.392.392 0 0 0 .211.052c.053 0 .236 0 .289-.026.593-1.196 1.145-1.842 1.843-2.196.394-.04 1.171-.054 1.381-.054.014.146.026.605.04 1.158.013.947.013 1.355.013 3.592 0 1.936-.013 2.804-.039 3.015-.053.368.013.645-1.565.71-.041.092-.041.198-.041.303 0 .053 0 .158.014.211h.514c.486 0 1.631-.053 2.105-.053.382 0 1.605.039 2.408.039h.369c.039-.065.039-.21.039-.276a.472.472 0 0 0-.054-.236c-.144 0-.987.025-1.354-.25a4.11 4.11 0 0 1-.118-.987c-.015-1.421-.027-1.96-.027-2.908 0-1.224.013-2.053.013-4.329.186 0 .606-.013 1 0 .816.225 1.211.526 1.566 1 .225.303.461.816.698 1.435a.664.664 0 0 0 .224.026c.052-.003.222-.03.249-.056M78.065 9.531c0-.186 0-.265-.015-.383-.064-.04-.092-.04-.196-.04-.093 0-.197 0-.29.027-.447 1.013-1.092 1.803-1.447 2.013-.197.119-.5.146-.986.146h-1.08c-.42 0-.75-.04-.867-.066-.198-.039-.408-.354-.501-.565-.093-.224-.144-.224-.144-.829V6.951h.486c.131 0 .447.026.803.185.328.145.461.342.592.552.119.186.197.908.224 1.094.065.039.237.052.342.052a.468.468 0 0 0 .265-.066c0-.354-.08-1.315-.08-1.842 0-.658.092-1.566.131-2.04a.563.563 0 0 0-.262-.052c-.093 0-.264 0-.343.039-.04.185-.185.736-.211.776a1.594 1.594 0 0 1-.896.685 3.428 3.428 0 0 1-.762.104h-.277V5.214c0-1.263.027-1.671.039-1.908.015-.158.041-.329.054-.447.118-.013.185-.025.79-.025.763 0 1.117.013 1.236.013.369.026.645.105.842.263.5.383.882.987 1.264 1.633.079.025.21.025.275.025.08 0 .093-.025.199-.079 0-.803-.054-1.842-.08-2.171-.013-.132-.039-.171-.303-.171-.105 0-.605-.027-1.132-.027-.75 0-1.052.015-2.196.015-.619 0-1.896.013-2.436.013-.789 0-1.46-.027-1.803-.027h-.447a.448.448 0 0 0-.066.212c0 .065.027.211.066.263.158.053.777.04.961.145.184.158.355.225.475.855.025.277.039 1.04.039 1.645v2.711c0 .554-.014 1.355-.027 1.685-.026.513-.211 1.132-.289 1.25-.118.092-.658.171-1.184.198a.736.736 0 0 0-.066.289c0 .078.025.171.066.236h.434c.421 0 1.974-.039 2.328-.039.33 0 .961.026 1.725.026.421 0 1.658.079 4.316.079.105 0 .224.013.355-.026.039-.065.039-.093.053-.211.026-.266.026-1.043.026-2.108m-11.132.46a.437.437 0 0 0-.447-.316c-.026 0-.065.013-.092.013-.79 1.119-1.658 1.54-2.646 1.54-1.369 0-2.343-.921-2.658-1.736-.17-.435-.407-1.383-.407-2.396 0-.96.144-1.737.394-2.303.58-1.526 1.422-2 2.448-2 .854 0 1.565.487 2.104 1.185.225.303.461.895.672 1.593.053.013.172.038.289.038.08 0 .264-.065.316-.117-.013-.146-.145-1.158-.145-1.475 0-.395.104-1.04.104-1.29-.079-.079-.342-.131-.513-.144-.197.144-.264.314-.447.539-.736-.526-1.421-.935-2.921-.935-1.382 0-2.474.475-3.303 1.304-.908.894-1.408 2.131-1.408 3.71 0 1.685.71 3.065 1.854 3.935.725.526 1.791.882 3.066.882 1.605 0 2.777-.605 3.369-1.408.239-.316.266-.395.371-.619M56.695 2.477a.428.428 0 0 0-.04-.184h-.303c-.658 0-1.079.025-2.263.025-.408 0-1.014-.025-1.158-.025h-.341c-.039.025-.053.171-.053.224 0 .066.014.171.065.225.211.064 1.013.156 1.354.381.237.276.344.829.383 1.342.013.198.025.395.025.935v2.75c0 .316-.013.422-.025.566-.225-.25-.539-.724-1.066-1.316l-4.394-4.87a.887.887 0 0 0-.197-.172c-.105 0-.29-.013-.395-.013-.843 0-2.369-.04-2.593-.04a.498.498 0 0 0-.053.186c0 .025.026.21.04.25.197.052.631.117.986.5.211.235.578.564.697.829.039.092.053.235.053.421 0 .684-.039 1.645-.039 2.565v2.671c0 .435-.039.776-.08 1-.275.29-.696.5-1.381.671a.786.786 0 0 0-.053.237c0 .039.014.171.039.185h.25c.264 0 .869-.039 1.264-.039.58 0 .974.039 1.514.039h.789c.053-.014.066-.172.066-.224a.629.629 0 0 0-.039-.211c-.461-.118-1.133-.224-1.58-.815-.093-.197-.17-1.172-.17-1.633 0-.421-.015-1-.015-1.775 0-1.04.015-1.948.026-2.408.08.092.172.21.238.289l6.078 6.83c.066.065.303.079.368.079s.106 0 .158-.027c.026-.065.118-.276.118-.592 0-.381-.012-.776-.012-.974V4.872c0-1.646.775-2.105 1.684-2.146a.53.53 0 0 0 .055-.249m-13.015 9.12a.869.869 0 0 0-.038-.264 9.19 9.19 0 0 1-.974-.118c-.211-.25-.355-.54-.447-1.013-.014-.632-.027-1.936-.027-3.158V3.806c0-.354.145-.631.236-.71.25-.237.75-.29 1.172-.342a.811.811 0 0 0 .04-.25.397.397 0 0 0-.066-.211h-.381c-.553 0-1.843.065-2.29.065-.275 0-1.566-.04-2.145-.053h-.291c-.039.053-.064.106-.064.225 0 .053.014.184.025.25.646.053.935.117 1.027.184.157.119.381.408.435 1.119.013.25.026.789.038 2 .014.658.027 1.579.027 2.342 0 .382-.027 1.237-.039 1.698-.026.315-.093.618-.185.789-.158.132-.315.369-1.276.434a.986.986 0 0 0-.039.277c0 .104.025.158.025.224h.225c.525 0 1.842-.065 2.525-.065.198 0 1.566.039 2.001.039h.435a.514.514 0 0 0 .051-.224M33.127 4.728c0 .815-.553 1.75-1.197 1.908-.264.065-.592.105-1.079.105-.132 0-.329 0-.486-.026l-.014-1.119V3.175c0-.158.04-.25.079-.29.039-.039.277-.079.553-.079 1.025 0 1.475.092 1.842.711.21.355.302.763.302 1.211m3.816 6.881c0-.065-.025-.224-.066-.276-.131 0-.67-.026-.867-.171a2.934 2.934 0 0 1-.225-.329c-.171-.605-.367-1.013-.566-1.513-.275-.658-.657-1.276-.973-1.566-.119-.105-.527-.276-.986-.434a15.484 15.484 0 0 1-.541-.212c.197-.038.291-.051.541-.078.973-.118 1.197-.289 1.447-.487.525-.395.815-1 .815-1.71 0-1.066-.685-2.092-1.646-2.396-.315-.092-.881-.145-1.578-.145-.987 0-2.369.092-3.027.092-.197 0-1.342-.026-1.803-.026-.197 0-.697-.025-.776-.025a.787.787 0 0 0-.065.25c0 .052.014.184.026.237.224.025.631.077.843.117.315.237.42.421.553.711.064.422.078 1.5.078 3.355 0 1.342.014 2.895-.053 3.395-.04.329-.158.725-.54.883-.171.025-.485.078-.75.092a.666.666 0 0 0-.065.263.83.83 0 0 0 .053.211c.184 0 2.197-.04 2.619-.04.842 0 1.553.04 2.303.04a.584.584 0 0 0 .053-.198.785.785 0 0 0-.053-.275c-.264-.027-.593-.105-.736-.132-.33-.158-.566-.474-.566-.935l-.014-3.04c.105-.013.237-.013.342-.013.172 0 .369.026.697.211.487.276.725.473 1.041.96.42.658.696 1.869.828 2.829.039.277.145.514.395.54.105.013.803.039 1.303.039h1.882c.052-.052.077-.158.077-.224m-14.29-6.816c0 .671-.237 1.264-.672 1.645-.276.225-.71.356-1.368.356-.275 0-.486-.014-.566-.027-.104-.013-.17-.025-.17-.092l.012-3.854c.158-.015.383-.066.764-.066.895 0 1.448.223 1.711.776a2.8 2.8 0 0 1 .289 1.262m2.355.053c0-.987-.565-1.908-1.407-2.29-.435-.184-1.197-.302-2.354-.302-1.015 0-2.594.079-3.291.079-.486 0-1.224-.053-1.632-.053a.481.481 0 0 0-.065.211c0 .052 0 .196.039.263.25.079.658.144.922.21.224.198.275.369.354.75.04.461.065 1.04.065 2.04 0 2.776-.012 4.237-.053 4.553-.052.396-.314.803-.75.935-.197.04-.486.104-.763.132a1.403 1.403 0 0 0-.026.275c0 .105.014.119.039.185.422 0 1.658-.052 2.133-.052 1.17 0 2.369.052 2.854.052h.329c.04-.052.04-.145.04-.21 0-.079 0-.185-.026-.237-.395-.053-.986-.132-1.236-.421-.133-.158-.264-.382-.264-.776l-.039-2.895c.789.052 1.631.079 2.092.079a4.98 4.98 0 0 0 1.527-.237c.934-.357 1.512-1.279 1.512-2.291m190.99-2.474c0-.079-.053-.105-.079-.158-.54 0-1.25.04-1.526.04-.671 0-1.487-.053-1.843-.053-.038.079-.052.092-.052.158 0 .065.014.117.026.157.381.079.934.171 1.039.355a.948.948 0 0 1 .119.513c0 .158-.014.316-.079.487-.118.329-.369.842-.725 1.565-.604 1.225-.986 1.987-1.196 2.29-.343-.578-1.106-2.105-1.29-2.5l-.737-1.605a1.203 1.203 0 0 1-.052-.355.85.85 0 0 1 .052-.342c.119-.237.527-.263 1.079-.329a.567.567 0 0 0 .04-.198c0-.092-.04-.064-.079-.131h-.237c-.882 0-.619.039-2.132.039-.645 0-1.421-.039-1.526-.039-.053.093-.078.105-.078.197 0 .053.013.092.052.158.882.211 1.145.369 1.236.54l2.304 4.513c.224.421.354.75.421.987.092.368.105.908.105 1.579 0 .565-.197.869-.422 1.013-.092.053-.75.146-1.052.171-.053.092-.066.119-.066.186 0 .064.026.104.039.157.673 0 1.369-.014 1.765-.014.275 0 .696.014 1.474.027.447.013.789.025 1.026.025.025-.053.065-.104.065-.171a.29.29 0 0 0-.053-.171c-.421-.053-1.013-.132-1.145-.263-.21-.225-.316-.329-.343-.842l-.104-1.975c-.013-.145.039-.276.052-.315a1.93 1.93 0 0 1 .146-.369l2.026-4.014a2.73 2.73 0 0 1 .842-.882c.185-.118.593-.196.855-.263.027-.063.053-.115.053-.168m-10.632 2.711V2.53c0-.197-.079-.25-.277-.25-.395 0-2.21.053-4.315.053-1.632 0-2.725-.027-3.461-.027h-.974c-.172 0-.224.04-.224.225v2.382a.23.23 0 0 0 .158.052c.052 0 .104 0 .158-.026.513-1.145.775-1.75 1.657-2.196.395-.04 1.776-.054 1.987-.054.013.146.026.605.039 1.158.013.947.013 1.46.013 3.697 0 1.935-.013 2.935-.039 3.145-.053.369.014.646-1.565.712-.04.092-.04.117-.04.224 0 .052 0 .104.014.158h.513c.487 0 1.132-.054 1.605-.054.382 0 1.106.04 1.908.04h.369c.039-.065.039-.132.039-.197a.31.31 0 0 0-.053-.185c-.145 0-.986.026-1.355-.25a4.09 4.09 0 0 1-.118-.986c-.013-1.422-.027-2.093-.027-3.04 0-1.225.015-2.158.015-4.435.184 0 1.157-.013 1.552 0 .815.223 1.132.526 1.487 1 .315.421.395.802.592 1.435a.54.54 0 0 0 .198.025.255.255 0 0 0 .144-.053m-10.935 6.5a.44.44 0 0 0-.04-.184 9.797 9.797 0 0 1-.975-.118c-.21-.25-.354-.54-.446-1.015-.014-.631-.026-2.065-.026-3.289V3.635c0-.354.144-.631.237-.71.25-.237.75-.29 1.171-.342a.429.429 0 0 0 .039-.171.218.218 0 0 0-.066-.158h-.381c-.553 0-1.342.065-1.79.065-.276 0-1.066-.039-1.646-.053h-.288c-.04.053-.066.053-.066.171 0 .053.013.105.026.172.645.053.935.117 1.026.184.158.119.381.408.435 1.119.013.25.025.921.039 2.131.014.658.026 1.553.026 2.316 0 .382-.026 1.368-.04 1.828-.025.316-.092.619-.184.79-.158.133-.316.368-1.276.435a.538.538 0 0 0-.04.198c0 .104.026.104.026.171h.224c.526 0 1.342-.066 2.027-.066.197 0 1.065.039 1.5.039h.434a.316.316 0 0 0 .054-.171m-6.501-2.421c0-1.053-.474-1.776-1.487-2.316-.276-.158-.763-.329-1.46-.525-.803-.225-1.475-.487-1.908-.725-.29-.158-.777-.592-.777-1.434 0-.843.856-1.54 1.856-1.54.789 0 1.421.395 1.802.921.329.461.448.671.816 1.5.04.013.092.027.132.027a.421.421 0 0 0 .289-.133c-.039-.328-.105-.788-.105-1.184 0-.342.079-.79.118-1.027-.104-.157-.223-.184-.394-.184-.185.119-.356.303-.514.474-.868-.697-1.58-.815-2.236-.815-1.619 0-2.777 1.079-2.777 2.513 0 .487.171.961.487 1.448.289.408.71.724 1.275.96.383.158 2.094.672 2.329.764 1.054.408 1.448.764 1.448 1.697 0 .461-.197.869-.579 1.329-.342.421-.882.619-1.461.619-.618 0-1.684-.265-2.21-.975-.316-.407-.764-1.263-.895-1.776-.093-.026-.093-.026-.185-.026a.465.465 0 0 0-.251.079c0 .171.053 1.04.053 1.303 0 .646-.117.96-.145 1.171.04.132.264.264.421.264.277-.237.566-.421.658-.421.079 0 .198.039.315.117.856.554 1.566.658 2.198.658 1.858 0 3.187-.934 3.187-2.763m-11.645-4.54c0 .842-.671 1.79-1.448 1.961-.315.066-.775.104-1.368.104-.157 0-.605 0-.803-.025l-.013-1.158V3.017c0-.171.039-.263.092-.303.053-.039.592-.079.921-.079 1.237 0 1.803.119 2.25.763.25.356.369.764.369 1.224m2.762 6.974a.348.348 0 0 0-.065-.196c-.131 0-.671-.026-.868-.172a2.826 2.826 0 0 1-.224-.328 17.002 17.002 0 0 0-.554-1.646c-.275-.658-.657-1.276-.973-1.566-.119-.104-.487-.275-.948-.434-.21-.079-.381-.145-.539-.211.197-.039.289-.052.539-.078.855-.105 1.146-.29 1.396-.487.525-.395.868-.986.868-1.697 0-1.066-.685-2.079-1.645-2.383-.316-.092-.882-.144-1.579-.144-.987 0-1.724.092-2.382.092-.198 0-.842-.026-1.303-.026-.197 0-.697-.026-.776-.026-.04.092-.065.119-.065.171 0 .053.013.132.025.184.225.027.632.079.842.119.316.237.421.421.554.71.065.421.079 1.606.079 3.461 0 1.343.013 3.027-.054 3.527-.039.329-.158.724-.539.881-.171.027-.486.079-.75.093a.34.34 0 0 0-.065.185c0 .039.025.092.053.158.184 0 1.697-.04 2.118-.04.842 0 1.053.04 1.803.04.026-.054.053-.093.053-.146a.382.382 0 0 0-.053-.197c-.263-.026-.592-.105-.737-.132-.328-.157-.565-.474-.565-.934l-.013-3.29c.104-.013.486-.013.592-.013.355 0 .711.025 1.053.184.5.224.974.579 1.29 1.066.421.657.697 1.907.829 2.868.039.276.144.514.394.539.106.014.264.04.765.04h1.367a.234.234 0 0 0 .077-.172m-11.04-2c0-.184 0-.263-.013-.381-.065-.04-.093-.04-.198-.04-.092 0-.079 0-.171.027-.289.96-.789 1.671-1.354 2.013-.198.118-.554.146-1.119.146h-1.474c-.461-.015-.75-.04-.868-.066-.197-.04-.408-.355-.5-.566-.093-.224-.146-.303-.146-.907v-3h.421c.421 0 .764.025 1.119.184.329.146.579.355.71.566.119.184.158.907.186 1.092a.33.33 0 0 0 .21.053c.104 0 .119-.014.211-.065 0-.355-.079-1.316-.079-1.843 0-.657.092-1.461.131-1.935-.052-.026-.079-.052-.21-.052-.092 0-.132 0-.211.039-.039.184-.146.736-.171.775-.197.329-.658.593-1.014.698-.236.066-.578.104-1.078.104h-.211V5.149c0-1.265.026-1.777.039-2.015.014-.158.039-.329.053-.447.119-.013.5-.025 1.105-.025.764 0 1.329.013 1.447.013.369.026.645.105.842.263.646.5.816.829 1.172 1.633.079.025.093.025.157.025.079 0 .093-.025.198-.079 0-.803-.053-1.711-.079-2.04-.013-.131-.04-.171-.303-.171-.105 0-.605-.025-1.131-.025-.75 0-1.054.013-2.198.013-.618 0-1.711.013-2.25.013-.79 0-.961-.025-1.303-.025h-.447c-.04.053-.066.104-.066.157 0 .066.026.132.066.185.158.053.775.04.96.145.185.158.355.197.474.829.026.276.04 1.171.04 1.776v2.711c0 .553-.014 1.461-.026 1.79-.026.513-.211 1.158-.289 1.276-.119.092-.658.171-1.186.196-.039.079-.064.132-.064.211s.025.118.064.185h.436c.421 0 1.474-.039 1.828-.039.329 0 .776.025 1.539.025.422 0 1.658.079 4.317.079.105 0 .223.014.355-.025.038-.066.038-.093.052-.211.027-.265.027-.91.027-1.976m-9.737-7.184c0-.053-.014-.132-.066-.146h-.447c-.315 0-.815.026-1.04.026-1.064 0-1.446-.066-1.604-.066h-.237c-.025.066-.065.106-.065.171 0 .054.026.093.026.146.329.04.618.104.908.198.158.156.329.473.329.829 0 .131-.132.75-.316 1.196l-2.118 5.211-2.605-6.593c.039-.315.21-.618.434-.737.225-.025.5-.104.855-.104a.476.476 0 0 0 .053-.184c0-.054-.013-.133-.065-.146h-.329c-.408 0-1.026.053-1.725.053-.302 0-.894-.026-1.473-.026h-.514c-.026.053-.053.079-.053.157 0 .079.014.106.039.158.369.092.725.237 1.106.448.25.368.789 1.697 1.079 2.396l1.092 2.631c.908 2.185 1.447 3.645 1.513 3.895.066.04 0 .079.118.079.119 0 .106-.026.132-.092l3.396-8.158c.118-.29.303-.566.474-.75.21-.237.646-.329 1.052-.421.012-.053.051-.106.051-.171m-11.527 9.171a.424.424 0 0 0-.039-.184 9.709 9.709 0 0 1-.974-.118c-.211-.25-.356-.54-.448-1.015-.013-.631-.026-2.065-.026-3.289V3.635c0-.354.146-.631.237-.71.25-.237.75-.29 1.171-.342a.414.414 0 0 0 .04-.171.227.227 0 0 0-.065-.158h-.383c-.553 0-1.342.065-1.789.065-.276 0-1.065-.039-1.645-.053h-.29c-.039.053-.066.053-.066.171 0 .053.015.105.027.172.645.053.935.117 1.026.184.158.119.382.408.434 1.119.014.25.027.921.04 2.131.013.658.026 1.553.026 2.316 0 .382-.026 1.368-.039 1.828-.027.316-.092.619-.186.79-.156.133-.314.368-1.275.435a.537.537 0 0 0-.039.198c0 .104.025.104.025.171h.225c.525 0 1.342-.066 2.025-.066.197 0 1.066.039 1.5.039h.435a.314.314 0 0 0 .053-.171m-5.949-9.198a.223.223 0 0 0-.039-.131h-.303c-.658 0-.947.026-2.132.026-.408 0-1.013-.026-1.158-.026h-.342c-.039.026-.052.118-.052.171 0 .065.013.092.064.145.211.065 1.015.157 1.356.382.237.275.342.829.381 1.342.013.198.027.395.027.935v3.908c0 .316-.015.421-.027.566-.223-.25-.605-.737-1.118-1.343l-5.027-5.869a.835.835 0 0 0-.196-.171c-.106 0-.237-.014-.342-.014-.844 0-1.579-.039-1.804-.039-.025.053-.04.079-.04.131 0 .027.015.133.027.172.197.053.776.118 1.013.368.21.237.526.514.646.776.039.092.052.237.052.421 0 .686-.039 1.936-.039 2.856v2.803c0 .434-.04.776-.079 1-.275.289-.698.5-1.382.671-.026.066-.052.092-.052.158 0 .039.013.118.039.131h.25c.263 0 .869-.039 1.263-.039.579 0 .842.039 1.382.039h.79c.052-.013.065-.118.065-.171 0-.052-.014-.079-.039-.131-.461-.119-1.132-.225-1.579-.816-.092-.198-.171-1.198-.171-1.658 0-.421-.014-1.105-.014-1.882 0-1.039.014-2.474.026-2.934.079.092.197.237.289.342l6.238 7.303c.064.066.092.079.158.079.064 0 .025 0 .078-.025.026-.066.065-.277.065-.594 0-.381-.013-.775-.013-.973V4.701c0-1.646.776-2.105 1.685-2.146a.27.27 0 0 0 .054-.17m-12.184.066a.27.27 0 0 0-.066-.171h-.381c-.408 0-.961.025-1.435.025-.526 0-1.118-.025-1.5-.025h-.475c-.039.079-.052.104-.052.171 0 .053.013.104.039.171.054 0 1.015.013 1.185.25.145.197.461.684.514.974.025.131.105.671.105 1.447 0 1.119 0 1.869-.014 2.264-.025.737-.105 1.316-.236 1.75-.369 1.146-1.225 1.71-2.58 1.71a3.602 3.602 0 0 1-1.539-.329c-.855-.421-1.264-1.223-1.276-1.657l-.066-3.947-.013-1.606c0-.302.382-.579.513-.735.105-.054.685-.106 1.013-.132.041-.079.066-.119.066-.185s-.039-.132-.092-.171l-.5.013c-.487.014-1.132.026-1.54.026-.631 0-1.118-.013-1.513-.013h-.553c-.053.039-.065.117-.065.184s.013.119.052.158c.421.053.698.092.882.132.224.131.382.355.462.579.012.171.038.592.038 1.421v3.158c0 .815.039 1.395.132 1.763.172.686.539 1.225 1.145 1.619.645.421 1.447.631 2.408.631.882 0 1.632-.184 2.264-.539.658-.354 1.066-.934 1.303-1.75.131-.486.21-1.013.21-1.565V5.543c0-.473.026-1.066.026-1.302.014-.711.198-1.132.395-1.448.211-.066.396-.105 1.093-.184.024-.053.051-.092.051-.158M11.346 2.123c-.459.14-.947.216-1.453.216A4.879 4.879 0 0 1 5.7 0a4.89 4.89 0 0 1-4.195 2.339c-.506 0-.994-.076-1.452-.215a13.734 13.734 0 0 0 .238 4.008H11.1c.282-1.352.359-2.698.246-4.009"/><path fill="#F48024" d="M1.783 10.092c.363.649.781 1.271 1.246 1.858l2.665-2.593 2.673 2.599c.461-.581.878-1.2 1.245-1.854l-3.918-3.77-3.911 3.76z"/><path fill="#F48024" d="M3.029 11.95a14.44 14.44 0 0 0 2.666 2.594 14.45 14.45 0 0 0 2.672-2.587L5.693 9.358 3.029 11.95z"/><path fill="#F48024" d="M1.783 10.092l3.911-3.759 3.918 3.77a13.858 13.858 0 0 0 1.448-3.779c.014-.063.025-.128.039-.191H.291a14.016 14.016 0 0 0 1.492 3.959"/><g fill="#231F20"><path d="M5.694 9.183l-2.652 2.581c-.41-.528-.78-1.082-1.103-1.648l3.755-3.609 3.761 3.619a14.075 14.075 0 0 1-1.101 1.645l-2.66-2.588z"/><path d="M5.694 6.68l3.604 3.468c-.288.496-.609.977-.958 1.435L5.869 9.178l-.175-.169-.174.17-2.464 2.397a13.823 13.823 0 0 1-.959-1.438L5.694 6.68m0-.347l-3.911 3.759c.363.649.781 1.271 1.246 1.858l2.665-2.593 2.673 2.599c.461-.581.878-1.2 1.245-1.854L5.694 6.333z"/></g><path fill="#231F20" d="M11.346 2.123c-.459.14-.947.216-1.453.216A4.879 4.879 0 0 1 5.7 0a4.89 4.89 0 0 1-4.195 2.339c-.506 0-.994-.076-1.452-.215a13.734 13.734 0 0 0 .238 4.008H11.1c.282-1.352.359-2.698.246-4.009"/><path fill="#FFF" d="M8.363 3.636v-.459h-.281v-.323l-.294-.083h-.02v-.276s-.103.122-.568.122c-.441 0-.7-.144-1.051-.144-.338 0-.441.193-.441.193v.111h-.012v-.11s-.106-.193-.44-.193c-.352 0-.611.145-1.052.145-.466 0-.547-.122-.547-.122v.29h-.018l-.32.067v.323h-.282v.459h.282v.743h-.282v.46h.282v.572s.473.074.909.074c.518 0 .816-.075 1.15-.082v.145s.135.067.316.067.326-.067.326-.067v-.145c.335.007.635.082 1.154.082.436 0 .908-.074.908-.074v-.572h.281v-.46h-.281v-.743h.281z"/><path d="M4.398 3.014c-.039.003-.063.022-.076.048l-.156.35s-.008.006-.014.006c-.004 0-.01-.006-.014-.017a2.714 2.714 0 0 0-.064-.156l-.051-.115a.539.539 0 0 0-.037-.078c-.018-.031-.041-.034-.066-.038-.002-.004-.002-.008-.002-.012l.002-.01h.025l.076.002.098-.003h.018c.003.001.004.007.004.01 0 .001 0 .009-.002.012-.02.002-.063.001-.063.027 0 .006.002.017.004.023l.104.247.086-.205c.012-.023.012-.043.012-.054 0-.023-.016-.033-.059-.038a.03.03 0 0 1-.003-.01l.003-.012h.012c.02 0 .039.003.082.003l.051-.002h.031c.001.004.003.006.003.01 0 .002-.002.01-.004.012m.438.392c-.126 0-.193-.003-.211-.003l-.059-.001c-.019 0-.059.003-.103.003l-.024-.001-.001-.009v-.012c.034-.003.058-.009.063-.014.007-.008.012-.026.015-.063v-.244c-.002-.046-.023-.046-.07-.051-.003-.003-.003-.007-.003-.01 0-.002 0-.009.004-.011h.023l.136.001.156.002h.043c.01 0 .014.001.014.01l.006.094c-.007.003-.007.004-.013.004l-.01-.001c-.027-.047-.04-.056-.062-.072-.008-.007-.019-.01-.035-.012l-.057-.001a.313.313 0 0 0-.047.002c-.005 0-.004-.001-.006.017a.903.903 0 0 0-.002.083v.054h.016a.205.205 0 0 0 .047-.005.07.07 0 0 0 .041-.03c.004-.005.009-.026.011-.034.002-.002.007-.003.013-.003.004 0 .008.001.01.003l-.002.09.002.081c-.004.003-.006.004-.013.004a.036.036 0 0 1-.011-.002c-.004-.035-.01-.06-.04-.072a.124.124 0 0 0-.046-.008.264.264 0 0 0-.028.002v.107c0 .025.002.04.007.049.002.008.012.021.024.023a.126.126 0 0 0 .038.004h.06a.124.124 0 0 0 .046-.007.222.222 0 0 0 .065-.089c.006-.002.009-.002.013-.002l.012.003v.109c-.001.011-.006.012-.022.012m.498-.284l-.01-.001a.416.416 0 0 0-.031-.061c-.018-.022-.035-.036-.078-.04l-.039-.001-.002.182.002.126c0 .048.021.048.072.054l.004.013c0 .004-.002.007-.004.01H5.23l-.105-.002-.104.003c-.003-.005-.004-.005-.004-.011l.003-.012c.066-.005.072-.017.074-.038.002-.013.002-.068.002-.124v-.15a.245.245 0 0 0-.004-.051c-.012 0-.053 0-.064.005-.034.011-.057.04-.084.09l-.01.001c-.004 0-.008-.001-.01-.004v-.106c0-.01.002-.012.013-.012h.045l.151.001c.099 0 .173-.002.191-.002.01 0 .018 0 .021.003v.122c-.001.004-.007.005-.011.005m-.957.649l-.012-.001a.223.223 0 0 0-.031-.062c-.016-.021-.033-.035-.076-.04l-.04-.001-.001.184.001.126c.001.047.022.047.073.053a.032.032 0 0 1 .002.012c0 .004 0 .007-.002.01h-.018l-.105-.002c-.012 0-.075.004-.105.004-.002-.005-.003-.005-.003-.012l.002-.011c.065-.004.072-.017.075-.038l.001-.124v-.151c0-.019 0-.037-.003-.051-.012 0-.053 0-.064.005-.033.013-.057.04-.082.092l-.013.001c-.004 0-.006-.001-.009-.005v-.106c0-.01.002-.012.012-.012h.045l.152.001c.098 0 .173-.002.191-.002.01 0 .018 0 .021.003l.001.015v.107c-.003.005-.007.005-.012.005m.475.284c-.125 0-.194-.003-.211-.003l-.059-.001c-.018 0-.059.003-.102.003l-.025-.001-.003-.009c0-.004 0-.009.002-.013.034-.002.058-.008.062-.014.008-.007.012-.025.014-.062l.002-.062-.001-.116-.001-.064c-.001-.047-.022-.047-.069-.052-.002-.004-.002-.008-.002-.011 0-.002.002-.01.004-.012h.022l.135.001.158.002h.042c.012 0 .016.001.016.011l.004.094a.016.016 0 0 1-.012.004l-.01-.001c-.025-.047-.04-.056-.062-.072a.069.069 0 0 0-.035-.011l-.057-.001a.294.294 0 0 0-.046.002c-.006 0-.005-.001-.007.016l-.001.083v.054h.015a.198.198 0 0 0 .047-.005.087.087 0 0 0 .043-.03.17.17 0 0 0 .008-.034c.004-.002.009-.003.014-.003s.009.001.011.003a.777.777 0 0 0-.005.089l.003.082c-.005.003-.006.004-.012.004a.037.037 0 0 1-.012-.002c-.004-.035-.01-.059-.041-.072a.096.096 0 0 0-.044-.008l-.027.001v.109c0 .025.002.04.005.049.003.007.014.021.024.023.007.001.018.003.039.003h.061a.106.106 0 0 0 .044-.007.236.236 0 0 0 .067-.09c.005-.002.009-.002.013-.002a.03.03 0 0 1 .011.003v.11c-.001.011-.008.012-.022.012m.291.009a.256.256 0 0 1-.096-.025c-.004-.002-.012-.003-.016-.003s-.016.006-.031.016c-.008 0-.021-.005-.023-.013 0-.009.008-.034.008-.051a.8.8 0 0 0-.004-.067c.004-.006.012-.008.018-.008h.008c.009.017.025.062.037.08.027.03.066.044.093.044.03 0 .054-.007.067-.02.02-.02.022-.031.022-.052 0-.015-.002-.026-.011-.037a.105.105 0 0 0-.043-.03c-.018-.007-.083-.024-.106-.037a.131.131 0 0 1-.057-.041.125.125 0 0 1-.025-.075c0-.066.053-.116.127-.116.028 0 .066.003.1.028l.023-.023c.014 0 .021.008.022.012 0 .009-.006.035-.006.056 0 .011.007.054.007.061-.005.003-.009.007-.017.007l-.008-.002c-.01-.021-.021-.055-.033-.073-.02-.026-.047-.036-.084-.036-.041 0-.074.026-.074.062 0 .034.027.052.051.062a.559.559 0 0 0 .062.021l.066.026a.113.113 0 0 1 .068.109c.001.077-.068.125-.145.125m-.598.641c-.127 0-.194-.003-.211-.003l-.06-.001c-.019 0-.058.003-.103.003l-.024-.001-.001-.009.001-.013c.033-.002.058-.008.062-.013.008-.008.012-.026.015-.063l.001-.062-.001-.117v-.064c-.001-.046-.024-.046-.071-.05L4.151 4.3c0-.002.001-.009.004-.011h.022l.136.001.157.002h.043c.01 0 .014.001.014.01l.006.095c-.006.002-.007.003-.012.003l-.01-.001c-.027-.047-.04-.056-.062-.072a.072.072 0 0 0-.035-.011l-.057-.001a.302.302 0 0 0-.047.002c-.006 0-.004-.001-.006.016-.002.01-.002.028-.002.083v.054h.015a.192.192 0 0 0 .047-.005.072.072 0 0 0 .042-.03c.004-.005.008-.027.01-.034.002-.002.008-.003.014-.003.004 0 .008.001.01.003 0 .017-.003.049-.003.089l.002.082c-.004.003-.006.004-.013.004a.036.036 0 0 1-.01-.002c-.004-.035-.011-.06-.041-.072a.119.119 0 0 0-.045-.008.283.283 0 0 0-.029.002v.108c0 .024.002.04.007.049.003.007.012.021.024.023.006.001.017.003.039.003h.059a.12.12 0 0 0 .046-.007.222.222 0 0 0 .065-.089c.006-.002.01-.002.014-.002l.012.003v.11c-.001.01-.007.011-.022.011m.603-.393c-.042 0-.079.023-.079.091l-.001.213c0 .008.004.067.004.091a.027.027 0 0 1-.017.007c-.002 0-.006-.002-.01-.007l-.293-.314.004.064v.116l.004.047c.002.026.01.035.021.044.014.013.038.017.055.018.002.005.004.007.004.01a.037.037 0 0 1-.004.011h-.031l-.076-.001-.062.002h-.015l-.001-.01.002-.012c.021-.001.054-.011.065-.027a.116.116 0 0 0 .008-.05v-.149l-.002-.059a.086.086 0 0 0-.014-.046l-.02-.021c-.01-.008-.033-.015-.046-.02a.033.033 0 0 1-.003-.01c0-.002.001-.008.003-.011h.01c.009 0 .054.003.089.003h.02a.044.044 0 0 1 .011.008l.217.237.05.057v-.17l-.002-.048a.109.109 0 0 0-.014-.044c-.005-.011-.046-.017-.068-.02-.002-.005-.002-.01-.002-.013s0-.006.002-.01h.012l.074.003.09-.001h.016l.001.01c0 .002 0 .007-.002.011m1.367-1.3c-.041.001-.079.024-.079.092v.214l.003.091c-.005.004-.013.006-.016.006s-.007-.002-.013-.007l-.291-.314.004.064v.116l.004.047c.003.025.01.034.021.044a.098.098 0 0 0 .056.018c.002.004.002.007.002.01 0 .002 0 .008-.002.012h-.033l-.076-.001-.062.002H6.02l-.002-.011c0-.001 0-.006.003-.011.021-.001.054-.011.065-.028a.115.115 0 0 0 .007-.05v-.149l-.001-.06a.08.08 0 0 0-.014-.044l-.021-.022c-.009-.009-.034-.015-.047-.02a.084.084 0 0 1-.002-.01l.002-.011h.011c.009 0 .054.003.089.003h.02l.013.008.218.237.047.057v-.17a.227.227 0 0 0-.004-.048.082.082 0 0 0-.013-.044c-.005-.012-.046-.017-.067-.021-.002-.004-.002-.009-.002-.012s0-.006.002-.01h.013l.073.003.09-.001h.015c.002.003.003.008.003.01s-.001.007-.003.01m.364.04a.096.096 0 0 0-.084-.044c-.033 0-.056.015-.076.044a.232.232 0 0 0-.039.145c0 .063.015.113.037.146.021.03.045.046.082.046.043 0 .069-.021.09-.057a.273.273 0 0 0 .026-.133c0-.068-.013-.116-.036-.147m.066.302a.214.214 0 0 1-.148.062.213.213 0 0 1-.144-.06.207.207 0 0 1-.063-.157.215.215 0 0 1 .209-.219c.036 0 .069.009.109.03.065.042.102.11.102.184a.232.232 0 0 1-.065.16m.588-.34a.084.084 0 0 0-.073.048l-.157.35s-.008.006-.013.006c-.004 0-.011-.006-.015-.017a2.714 2.714 0 0 0-.064-.156l-.05-.115c-.018-.042-.033-.069-.037-.078-.02-.031-.042-.034-.067-.038-.003-.004-.003-.008-.003-.012l.002-.01h.026l.076.002.099-.003h.017c.004.001.004.007.004.01 0 .001 0 .009-.002.012-.02.002-.062.001-.062.027 0 .006 0 .017.004.023l.102.247.086-.204a.122.122 0 0 0 .012-.054c0-.023-.016-.033-.061-.038v-.023h.014c.02 0 .037.003.082.003l.052-.002h.03c.002.004.003.006.003.01 0 .002-.001.01-.005.012m-1.154.757l-.012-.001a.223.223 0 0 0-.031-.062c-.016-.02-.033-.035-.076-.04l-.04-.001-.001.184.001.126c.001.047.022.047.073.053a.032.032 0 0 1 .002.012c0 .004 0 .007-.002.01h-.018L6.17 4.05c-.012 0-.075.004-.105.004-.003-.005-.003-.005-.003-.012l.002-.011c.065-.004.072-.017.075-.038l.001-.124v-.151c0-.019 0-.037-.003-.051-.012 0-.053 0-.065.005-.032.013-.056.04-.082.092l-.012.001c-.004 0-.006-.001-.009-.005v-.106c0-.01.002-.012.012-.012h.045l.152.001c.098 0 .173-.002.191-.002.01 0 .018 0 .021.003l.001.015v.107c-.003.005-.008.005-.012.005m.235-.044a.493.493 0 0 0-.03.066 1.772 1.772 0 0 1-.033.079h.123l-.06-.145m.262.328h-.032c-.021 0-.045-.003-.07-.003-.039 0-.09.003-.108.003-.003-.002-.004-.006-.004-.011l.002-.01c.04-.002.057-.009.057-.024 0-.007 0-.021-.013-.055l-.022-.051c-.002-.003-.002-.005-.01-.005h-.131a.249.249 0 0 0-.031.079c-.002.011-.002.021-.002.025 0 .014.012.028.058.029.003.005.003.01.003.012l-.001.01h-.011l-.072-.002-.089.002c-.002-.003-.004-.005-.004-.009 0-.002 0-.006.003-.011.024-.005.047-.013.059-.029a.893.893 0 0 0 .054-.108l.062-.155c.018-.034.023-.048.029-.06.008-.019.018-.036.021-.043a.024.024 0 0 1 .016-.008c.008 0 .016.005.019.009l.011.02.072.18c.016.036.023.059.039.096.012.024.018.041.029.062.016.031.041.032.065.038.001.003.005.007.005.01.001.003-.001.005-.004.009m.641 0l-.168-.002h-.046a.026.026 0 0 1-.003-.01c0-.007.001-.008.004-.012.009-.001.03 0 .041-.004.018-.007.024-.023.024-.048v-.298h-.002l-.088.193c-.008.021-.02.044-.029.066-.021.045-.031.077-.037.094-.004.009-.01.009-.014.009-.006 0-.01-.002-.013-.013l-.022-.051-.139-.304h-.003v.078l.003.193c0 .06.031.087.078.087l.004.011a.022.022 0 0 1-.003.01l-.021.001c-.006 0-.037-.003-.082-.003l-.057.001h-.028l-.002-.01.002-.01c.012-.003.053-.012.061-.02.01-.008.018-.026.018-.067v-.214c-.003-.034-.007-.046-.023-.057-.006-.005-.033-.008-.054-.012a.028.028 0 0 1-.004-.012c0-.003.002-.006.004-.011l.074.002h.1a.03.03 0 0 1 .009.01l.124.281.021-.056c.02-.045.047-.113.086-.187a.58.58 0 0 0 .025-.048l.157-.003c.002.004.004.007.004.01 0 .005-.001.007-.003.011-.017.004-.046.004-.06.028-.006.007-.008.015-.008.049v.2c0 .077.019.084.027.09.005.003.03.006.043.006a.026.026 0 0 1 .003.011c0 .007-.002.007-.003.011m-1.147.366l-.013-.001a.18.18 0 0 0-.031-.062c-.015-.021-.033-.035-.076-.04l-.04-.001-.001.183.001.126c.001.048.022.048.073.055a.023.023 0 0 1 .003.012c0 .004 0 .007-.003.01h-.017L6.161 4.7l-.106.003c-.002-.004-.003-.004-.003-.011l.002-.011c.066-.004.072-.017.075-.037l.001-.124v-.152c0-.019 0-.038-.003-.051-.012 0-.053 0-.064.005-.034.012-.057.041-.083.091a.062.062 0 0 1-.013.001c-.004 0-.006-.001-.009-.004v-.105c0-.011.002-.013.012-.013h.045l.152.001c.098 0 .173-.002.191-.002.011 0 .018 0 .021.003.003.002.002.011.002.016v.106c-.003.004-.007.005-.011.005m.515-.109a.086.086 0 0 0-.074.049l-.157.351s-.008.006-.013.006-.011-.006-.014-.018a2.668 2.668 0 0 0-.065-.155l-.05-.115c-.018-.042-.033-.07-.037-.079-.02-.031-.042-.034-.066-.038-.005-.004-.005-.007-.005-.011 0-.003 0-.005.004-.01h.024l.076.002.099-.003h.017c.004.001.005.007.005.01 0 .001 0 .008-.002.011-.02.001-.063 0-.063.028 0 .006 0 .016.004.022l.103.246.087-.204a.135.135 0 0 0 .012-.053c0-.023-.017-.033-.06-.038l-.002-.01a.05.05 0 0 1 .002-.012h.012c.019 0 .038.003.082.003l.052-.002h.03l.003.009c0 .003-.001.01-.004.011m.64.393l-.167-.002h-.046c-.003-.004-.003-.01-.003-.011 0-.006 0-.007.004-.011.01-.001.031 0 .042-.004.016-.007.022-.024.022-.048v-.242l.002-.056h-.002l-.088.192-.031.067c-.02.045-.03.076-.037.094-.002.008-.008.008-.012.008-.006 0-.01-.002-.014-.012-.009-.025-.017-.04-.021-.051l-.14-.305h-.003v.078l.003.194c.001.059.031.087.079.087a.026.026 0 0 1 .003.01c0 .002 0 .007-.002.011l-.022.001c-.006 0-.035-.004-.08-.004l-.058.002h-.028c-.002-.004-.002-.008-.002-.011 0-.001 0-.006.002-.009.011-.003.053-.013.061-.021.008-.009.016-.026.016-.067v-.212c0-.034-.004-.047-.021-.059-.007-.005-.034-.008-.054-.011-.004-.003-.004-.007-.004-.011 0-.003 0-.006.004-.011L7 4.293h.102c.003.003.006.005.008.01l.124.281.022-.057c.019-.045.047-.112.086-.186.008-.018.02-.037.025-.048l.156-.003c.002.004.005.007.005.01 0 .005-.002.007-.004.011-.017.003-.046.003-.06.027-.006.007-.01.015-.01.049v.2c0 .077.02.084.029.09a.127.127 0 0 0 .041.006c.003.004.004.007.004.01.001.007-.001.007-.003.012" fill="#231F20"/><path fill="#231F20" d="M8.03 5.364a6.292 6.292 0 0 1-.858.069c-.512 0-1.141-.08-1.147-.081l-.056-.008v.168a.77.77 0 0 1-.544 0v-.168l-.055.008c-.007.001-.637.081-1.145.081-.356 0-.739-.05-.86-.068V2.89c.045-.01.179-.037.244-.052v2.243c.024.052.127.17.596.17l.593-.077.455-.065c.303 0 .397.162.401.168l.014-.007h.069l.013.006c.004-.006.098-.168.398-.168l.453.065.598.077c.475 0 .594-.125.605-.139l.01-2.286.216.062v2.477zM3.707 2.585c.078.04.219.081.497.081l.597-.079.455-.063c.297 0 .392.158.396.167v2.447c-.072-.061-.193-.126-.4-.126l-.476.065-.572.077c-.419 0-.506-.102-.507-.103 0 .001.008-2.298.01-2.466m2.043.105c.004-.007.098-.167.398-.167l.453.063.598.078c.289 0 .438-.045.52-.084v2.495c-.008-.012-.125.078-.52.078l-.577-.076-.474-.065c-.206 0-.326.064-.398.125V2.69zm2.064.035l.001-.353-.085.09c-.001.001-.105.106-.531.106l-.577-.077-.474-.065c-.26 0-.391.105-.447.17-.057-.064-.188-.17-.445-.17l-.476.065-.576.078c-.419 0-.506-.101-.507-.102L3.61 2.36l-.002.136v.241l-.34.073v2.64l.041.007c.005 0 .48.074.916.074.431 0 .941-.056 1.103-.075v.119l.027.014a.814.814 0 0 0 .336.072.88.88 0 0 0 .348-.072l.028-.014v-.12c.162.02.671.075 1.105.075s.91-.074.914-.074l.041-.007V2.812l-.313-.087z"/></svg>